<svg width="12" height="12" viewBox="0 0 12 12" fill="none" xmlns="http://www.w3.org/2000/svg">
<path d="M6.27001 7.96524L10.2525 3.7855C10.319 3.71575 10.3561 3.6231 10.3561 3.52675C10.3561 3.43039 10.319 3.33774 10.2525 3.268L10.248 3.2635C10.2158 3.22957 10.177 3.20256 10.134 3.18409C10.091 3.16563 10.0447 3.15612 9.99788 3.15612C9.95109 3.15612 9.90478 3.16563 9.86178 3.18409C9.81878 3.20256 9.77999 3.22957 9.74776 3.2635L5.99776 7.19949L2.24926 3.2635C2.21703 3.22957 2.17824 3.20255 2.13524 3.18409C2.09224 3.16563 2.04593 3.15611 1.99914 3.15611C1.95234 3.15611 1.90603 3.16563 1.86303 3.18409C1.82004 3.20255 1.78124 3.22957 1.74901 3.2635L1.74451 3.268C1.67803 3.33774 1.64094 3.43039 1.64094 3.52675C1.64094 3.6231 1.67803 3.71575 1.74451 3.7855L5.72701 7.96524C5.76203 8.002 5.80415 8.03127 5.85082 8.05126C5.89749 8.07126 5.94774 8.08157 5.99851 8.08157C6.04928 8.08157 6.09952 8.07126 6.14619 8.05126C6.19286 8.03127 6.23499 8.002 6.27001 7.96524Z" fill="#ECECEC"/>
</svg>
