<svg width="1920" height="516" viewBox="0 0 1920 516" fill="none" xmlns="http://www.w3.org/2000/svg">
<g clip-path="url(#clip0_0_554)">
<rect width="1920" height="516" fill="#151515"/>
<rect width="1920" height="516" transform="matrix(-1 0 0 1 1920 0.00012207)" fill="#1B1B1B"/>
<path d="M848.379 223.48C848.379 225.453 848.859 227.213 849.819 228.76C850.833 230.253 852.059 231.56 853.499 232.68C854.993 233.8 856.993 235.133 859.499 236.68C862.219 238.387 864.353 239.853 865.899 241.08C867.499 242.307 868.833 243.827 869.899 245.64C871.019 247.4 871.579 249.48 871.579 251.88C871.579 254.6 870.859 257.027 869.419 259.16C868.033 261.293 866.033 262.973 863.419 264.2C860.859 265.373 857.926 265.96 854.619 265.96C852.379 265.96 850.059 265.667 847.659 265.08C845.313 264.493 843.526 263.773 842.299 262.92C841.819 262.6 841.553 262.093 841.499 261.4L841.019 249.24V249.16C841.019 248.947 841.153 248.84 841.419 248.84C841.686 248.787 841.846 248.867 841.899 249.08C843.659 253.507 845.659 257.133 847.899 259.96C850.193 262.787 853.099 264.2 856.619 264.2C858.913 264.2 860.833 263.587 862.379 262.36C863.926 261.08 864.699 258.973 864.699 256.04C864.699 253.693 864.166 251.64 863.099 249.88C862.086 248.12 860.806 246.653 859.259 245.48C857.766 244.307 855.713 242.867 853.099 241.16C850.539 239.507 848.539 238.12 847.099 237C845.659 235.827 844.433 234.413 843.419 232.76C842.406 231.053 841.899 229.08 841.899 226.84C841.899 224.067 842.673 221.72 844.219 219.8C845.766 217.88 847.766 216.467 850.219 215.56C852.726 214.6 855.339 214.12 858.059 214.12C859.873 214.12 861.686 214.307 863.499 214.68C865.313 215 866.833 215.427 868.059 215.96C868.859 216.28 869.259 216.787 869.259 217.48L869.499 228.36C869.499 228.52 869.339 228.627 869.019 228.68C868.753 228.733 868.593 228.68 868.539 228.52C867.473 225.267 866.033 222.333 864.219 219.72C862.459 217.053 859.793 215.72 856.219 215.72C853.819 215.72 851.899 216.413 850.459 217.8C849.073 219.187 848.379 221.08 848.379 223.48ZM905.726 259.96C905.833 259.96 905.94 260.067 906.046 260.28C906.206 260.493 906.233 260.653 906.126 260.76C904.153 262.573 902.18 263.907 900.206 264.76C898.233 265.56 896.1 265.96 893.806 265.96C890.553 265.96 887.726 265.24 885.326 263.8C882.98 262.36 881.166 260.467 879.886 258.12C878.66 255.773 878.046 253.24 878.046 250.52C878.046 247.373 878.82 244.493 880.366 241.88C881.913 239.267 884.02 237.213 886.686 235.72C889.406 234.173 892.42 233.4 895.726 233.4C898.926 233.4 901.406 234.173 903.166 235.72C904.926 237.267 905.806 239.56 905.806 242.6C905.806 244.147 905.486 244.92 904.846 244.92L885.326 245C885.273 245.48 885.246 246.2 885.246 247.16C885.246 251.853 886.313 255.587 888.446 258.36C890.633 261.08 893.726 262.44 897.726 262.44C899.22 262.44 900.473 262.28 901.486 261.96C902.5 261.587 903.86 260.947 905.566 260.04L905.726 259.96ZM892.846 235C890.873 235 889.246 235.773 887.966 237.32C886.74 238.813 885.913 240.893 885.486 243.56L898.286 243.32C898.18 237.773 896.366 235 892.846 235ZM931.489 233.32C932.716 233.32 933.889 233.72 935.009 234.52C936.129 235.32 936.689 236.28 936.689 237.4C936.689 238.413 936.369 239.24 935.729 239.88C935.143 240.52 934.316 240.84 933.249 240.84C932.556 240.84 931.969 240.707 931.489 240.44C931.063 240.12 930.609 239.693 930.129 239.16C929.649 238.68 929.223 238.333 928.849 238.12C928.476 237.853 928.023 237.72 927.489 237.72C926.903 237.72 926.263 237.96 925.569 238.44C924.929 238.867 923.916 239.8 922.529 241.24V258.52C922.529 260.013 922.743 261.16 923.169 261.96C923.596 262.707 924.316 263.24 925.329 263.56C926.343 263.88 927.836 264.04 929.809 264.04C930.023 264.04 930.129 264.2 930.129 264.52C930.129 264.84 930.023 265 929.809 265C928.049 265 926.636 264.973 925.569 264.92L919.249 264.84L914.609 264.92C913.863 264.973 912.823 265 911.489 265C911.329 265 911.249 264.84 911.249 264.52C911.249 264.2 911.329 264.04 911.489 264.04C913.303 264.04 914.503 263.667 915.089 262.92C915.676 262.173 915.969 260.707 915.969 258.52V243.24C915.969 241.533 915.756 240.28 915.329 239.48C914.956 238.68 914.316 238.28 913.409 238.28C912.609 238.28 911.276 238.68 909.409 239.48H909.329C909.116 239.48 908.956 239.347 908.849 239.08C908.743 238.813 908.769 238.653 908.929 238.6L919.409 233.48C919.729 233.373 919.916 233.32 919.969 233.32C920.503 233.32 921.036 233.907 921.569 235.08C922.103 236.2 922.423 237.693 922.529 239.56C924.609 237.213 926.343 235.587 927.729 234.68C929.116 233.773 930.369 233.32 931.489 233.32ZM973.411 234.12C973.518 234.12 973.571 234.28 973.571 234.6C973.571 234.92 973.518 235.08 973.411 235.08C971.918 235.08 970.611 235.613 969.491 236.68C968.425 237.747 967.385 239.453 966.371 241.8L956.451 265C956.345 265.267 956.078 265.4 955.651 265.4C955.171 265.4 954.851 265.267 954.691 265L942.851 240.76C941.731 238.413 940.771 236.893 939.971 236.2C939.171 235.453 938.185 235.08 937.011 235.08C936.851 235.08 936.771 234.92 936.771 234.6C936.771 234.28 936.851 234.12 937.011 234.12C937.971 234.12 938.745 234.147 939.331 234.2L943.971 234.28L949.891 234.2C950.745 234.147 951.918 234.12 953.411 234.12C953.571 234.12 953.651 234.28 953.651 234.6C953.651 234.92 953.571 235.08 953.411 235.08C950.265 235.08 948.691 235.693 948.691 236.92C948.691 237.24 948.825 237.667 949.091 238.2L958.291 256.36L964.371 241.64C964.745 240.733 964.931 239.853 964.931 239C964.931 237.72 964.451 236.76 963.491 236.12C962.585 235.427 961.225 235.08 959.411 235.08C959.305 235.08 959.251 234.92 959.251 234.6C959.251 234.28 959.305 234.12 959.411 234.12C960.851 234.12 961.945 234.147 962.691 234.2L967.491 234.28L970.611 234.2C971.198 234.147 972.131 234.12 973.411 234.12ZM983.289 224.92C981.903 224.92 980.809 224.547 980.009 223.8C979.263 223.053 978.889 221.987 978.889 220.6C978.889 219.267 979.263 218.253 980.009 217.56C980.809 216.813 981.903 216.44 983.289 216.44C984.623 216.44 985.663 216.813 986.409 217.56C987.156 218.253 987.529 219.267 987.529 220.6C987.529 221.987 987.156 223.053 986.409 223.8C985.716 224.547 984.676 224.92 983.289 224.92ZM975.929 265C975.769 265 975.689 264.84 975.689 264.52C975.689 264.2 975.769 264.04 975.929 264.04C977.743 264.04 978.943 263.667 979.529 262.92C980.116 262.173 980.409 260.707 980.409 258.52V243.96C980.409 242.147 980.223 240.84 979.849 240.04C979.476 239.187 978.836 238.76 977.929 238.76C977.129 238.76 976.089 239.08 974.809 239.72H974.729C974.516 239.72 974.356 239.587 974.249 239.32C974.143 239.053 974.169 238.867 974.329 238.76L985.849 233.4L986.089 233.32C986.303 233.32 986.516 233.453 986.729 233.72C986.996 233.933 987.129 234.12 987.129 234.28V235.96C987.023 238.2 986.969 240.84 986.969 243.88V258.52C986.969 260.707 987.263 262.173 987.849 262.92C988.489 263.667 989.716 264.04 991.529 264.04C991.689 264.04 991.769 264.2 991.769 264.52C991.769 264.84 991.689 265 991.529 265C990.196 265 989.129 264.973 988.329 264.92L983.689 264.84L979.049 264.92C978.303 264.973 977.263 265 975.929 265ZM1011.9 265.96C1008.43 265.96 1005.47 265.213 1003.02 263.72C1000.62 262.173 998.833 260.2 997.659 257.8C996.486 255.347 995.899 252.787 995.899 250.12C995.899 246.76 996.806 243.827 998.619 241.32C1000.43 238.76 1002.75 236.813 1005.58 235.48C1008.46 234.093 1011.37 233.4 1014.3 233.4C1016.81 233.4 1019.07 233.907 1021.1 234.92C1023.13 235.933 1024.14 237.293 1024.14 239C1024.14 239.907 1023.79 240.707 1023.1 241.4C1022.41 242.04 1021.45 242.36 1020.22 242.36C1018.19 242.36 1016.73 241.16 1015.82 238.76C1015.29 237.427 1014.73 236.493 1014.14 235.96C1013.55 235.373 1012.62 235.08 1011.34 235.08C1008.83 235.08 1006.83 236.227 1005.34 238.52C1003.9 240.76 1003.18 243.773 1003.18 247.56C1003.18 251.987 1004.19 255.587 1006.22 258.36C1008.3 261.08 1011.53 262.44 1015.9 262.44C1017.39 262.44 1018.73 262.253 1019.9 261.88C1021.07 261.507 1022.35 260.92 1023.74 260.12H1023.82C1023.98 260.12 1024.11 260.2 1024.22 260.36C1024.38 260.52 1024.41 260.653 1024.3 260.76C1022.33 262.52 1020.38 263.827 1018.46 264.68C1016.54 265.533 1014.35 265.96 1011.9 265.96ZM1056.3 259.96C1056.41 259.96 1056.52 260.067 1056.62 260.28C1056.78 260.493 1056.81 260.653 1056.7 260.76C1054.73 262.573 1052.76 263.907 1050.78 264.76C1048.81 265.56 1046.68 265.96 1044.38 265.96C1041.13 265.96 1038.3 265.24 1035.9 263.8C1033.56 262.36 1031.74 260.467 1030.46 258.12C1029.24 255.773 1028.62 253.24 1028.62 250.52C1028.62 247.373 1029.4 244.493 1030.94 241.88C1032.49 239.267 1034.6 237.213 1037.26 235.72C1039.98 234.173 1043 233.4 1046.3 233.4C1049.5 233.4 1051.98 234.173 1053.74 235.72C1055.5 237.267 1056.38 239.56 1056.38 242.6C1056.38 244.147 1056.06 244.92 1055.42 244.92L1035.9 245C1035.85 245.48 1035.82 246.2 1035.82 247.16C1035.82 251.853 1036.89 255.587 1039.02 258.36C1041.21 261.08 1044.3 262.44 1048.3 262.44C1049.8 262.44 1051.05 262.28 1052.06 261.96C1053.08 261.587 1054.44 260.947 1056.14 260.04L1056.3 259.96ZM1043.42 235C1041.45 235 1039.82 235.773 1038.54 237.32C1037.32 238.813 1036.49 240.893 1036.06 243.56L1048.86 243.32C1048.76 237.773 1046.94 235 1043.42 235ZM1067.75 238.28C1067.75 239.933 1068.31 241.32 1069.43 242.44C1070.6 243.56 1072.28 244.733 1074.47 245.96C1076.39 247.027 1077.85 247.907 1078.87 248.6C1079.93 249.293 1080.84 250.227 1081.59 251.4C1082.39 252.573 1082.79 253.987 1082.79 255.64C1082.79 257.453 1082.33 259.133 1081.43 260.68C1080.52 262.227 1079.16 263.48 1077.35 264.44C1075.59 265.4 1073.48 265.88 1071.03 265.88C1068.09 265.88 1065.4 265.133 1062.95 263.64C1062.63 263.32 1062.47 263 1062.47 262.68L1062.31 255.32C1062.31 255.16 1062.44 255.08 1062.71 255.08C1063.03 255.027 1063.21 255.053 1063.27 255.16C1064.17 257.827 1065.53 260.013 1067.35 261.72C1069.21 263.427 1071.19 264.28 1073.27 264.28C1074.6 264.28 1075.64 263.933 1076.39 263.24C1077.13 262.547 1077.51 261.507 1077.51 260.12C1077.51 258.093 1076.92 256.493 1075.75 255.32C1074.57 254.093 1072.87 252.893 1070.63 251.72C1068.81 250.76 1067.4 249.96 1066.39 249.32C1065.37 248.627 1064.49 247.72 1063.75 246.6C1063.05 245.427 1062.71 243.987 1062.71 242.28C1062.71 239.24 1063.8 236.973 1065.99 235.48C1068.23 233.987 1070.92 233.24 1074.07 233.24C1076.15 233.24 1078.28 233.64 1080.47 234.44C1080.95 234.653 1081.19 234.947 1081.19 235.32C1081.19 236.547 1081.16 237.507 1081.11 238.2L1081.03 242.04C1081.03 242.2 1080.87 242.28 1080.55 242.28C1080.23 242.28 1080.07 242.2 1080.07 242.04C1080.07 240.973 1079.64 239.88 1078.79 238.76C1077.93 237.587 1076.84 236.627 1075.51 235.88C1074.17 235.133 1072.81 234.76 1071.43 234.76C1068.97 234.76 1067.75 235.933 1067.75 238.28Z" fill="white"/>
<path d="M883.165 318V303.6H884.945V309.95H892.525V303.6H894.305V318H892.525V311.64H884.945V318H883.165ZM901.74 318.3C900.667 318.3 899.74 318.057 898.96 317.57C898.187 317.083 897.59 316.41 897.17 315.55C896.75 314.69 896.54 313.703 896.54 312.59C896.54 311.457 896.753 310.463 897.18 309.61C897.607 308.757 898.21 308.093 898.99 307.62C899.77 307.14 900.687 306.9 901.74 306.9C902.82 306.9 903.75 307.143 904.53 307.63C905.31 308.11 905.907 308.78 906.32 309.64C906.74 310.493 906.95 311.477 906.95 312.59C906.95 313.717 906.74 314.71 906.32 315.57C905.9 316.423 905.3 317.093 904.52 317.58C903.74 318.06 902.813 318.3 901.74 318.3ZM901.74 316.61C902.86 316.61 903.693 316.237 904.24 315.49C904.787 314.743 905.06 313.777 905.06 312.59C905.06 311.37 904.783 310.4 904.23 309.68C903.677 308.953 902.847 308.59 901.74 308.59C900.987 308.59 900.367 308.76 899.88 309.1C899.393 309.44 899.03 309.91 898.79 310.51C898.55 311.11 898.43 311.803 898.43 312.59C898.43 313.803 898.71 314.777 899.27 315.51C899.83 316.243 900.653 316.61 901.74 316.61ZM922.092 318L922.102 311.09C922.102 310.283 921.885 309.653 921.452 309.2C921.025 308.74 920.468 308.51 919.782 308.51C919.382 308.51 919.002 308.603 918.642 308.79C918.282 308.97 917.988 309.257 917.762 309.65C917.535 310.037 917.422 310.533 917.422 311.14L916.482 310.76C916.468 309.993 916.625 309.323 916.952 308.75C917.285 308.17 917.738 307.72 918.312 307.4C918.885 307.08 919.532 306.92 920.252 306.92C921.378 306.92 922.265 307.263 922.912 307.95C923.558 308.63 923.882 309.547 923.882 310.7L923.872 318H922.092ZM909.172 318V307.2H910.762V310.09H910.962V318H909.172ZM915.642 318L915.652 311.16C915.652 310.333 915.438 309.687 915.012 309.22C914.585 308.747 914.018 308.51 913.312 308.51C912.612 308.51 912.045 308.75 911.612 309.23C911.178 309.71 910.962 310.347 910.962 311.14L910.022 310.58C910.022 309.88 910.188 309.253 910.522 308.7C910.855 308.147 911.308 307.713 911.882 307.4C912.455 307.08 913.105 306.92 913.832 306.92C914.558 306.92 915.192 307.073 915.732 307.38C916.272 307.687 916.688 308.127 916.982 308.7C917.275 309.267 917.422 309.943 917.422 310.73L917.412 318H915.642ZM931.099 318.3C930.039 318.3 929.112 318.067 928.319 317.6C927.532 317.127 926.919 316.47 926.479 315.63C926.039 314.783 925.819 313.797 925.819 312.67C925.819 311.49 926.035 310.47 926.469 309.61C926.902 308.743 927.505 308.077 928.279 307.61C929.059 307.137 929.972 306.9 931.019 306.9C932.105 306.9 933.029 307.15 933.789 307.65C934.555 308.15 935.129 308.863 935.509 309.79C935.895 310.717 936.062 311.82 936.009 313.1H934.209V312.46C934.189 311.133 933.919 310.143 933.399 309.49C932.879 308.83 932.105 308.5 931.079 308.5C929.979 308.5 929.142 308.853 928.569 309.56C927.995 310.267 927.709 311.28 927.709 312.6C927.709 313.873 927.995 314.86 928.569 315.56C929.142 316.26 929.959 316.61 931.019 316.61C931.732 316.61 932.352 316.447 932.879 316.12C933.405 315.793 933.819 315.323 934.119 314.71L935.829 315.3C935.409 316.253 934.775 316.993 933.929 317.52C933.089 318.04 932.145 318.3 931.099 318.3ZM927.109 313.1V311.67H935.089V313.1H927.109ZM947.649 314.2C947.176 314.2 946.746 314.09 946.359 313.87C945.979 313.65 945.672 313.353 945.439 312.98C945.212 312.6 945.099 312.173 945.099 311.7C945.099 311.227 945.212 310.8 945.439 310.42C945.672 310.04 945.979 309.743 946.359 309.53C946.746 309.31 947.176 309.2 947.649 309.2C948.089 309.2 948.496 309.31 948.869 309.53C949.242 309.743 949.539 310.04 949.759 310.42C949.986 310.8 950.099 311.227 950.099 311.7C950.099 312.173 949.986 312.6 949.759 312.98C949.539 313.353 949.242 313.65 948.869 313.87C948.496 314.09 948.089 314.2 947.649 314.2ZM964.871 318.3C963.851 318.3 962.931 318.127 962.111 317.78C961.298 317.433 960.625 316.94 960.091 316.3C959.565 315.653 959.221 314.89 959.061 314.01L960.901 313.72C961.135 314.627 961.618 315.337 962.351 315.85C963.091 316.357 963.961 316.61 964.961 316.61C965.608 316.61 966.191 316.51 966.711 316.31C967.238 316.103 967.655 315.81 967.961 315.43C968.268 315.05 968.421 314.6 968.421 314.08C968.421 313.76 968.365 313.487 968.251 313.26C968.145 313.027 967.995 312.83 967.801 312.67C967.615 312.503 967.401 312.363 967.161 312.25C966.921 312.137 966.671 312.043 966.411 311.97L962.741 310.88C962.341 310.76 961.955 310.61 961.581 310.43C961.208 310.243 960.875 310.013 960.581 309.74C960.288 309.46 960.055 309.127 959.881 308.74C959.708 308.347 959.621 307.883 959.621 307.35C959.621 306.497 959.841 305.77 960.281 305.17C960.728 304.563 961.331 304.1 962.091 303.78C962.851 303.46 963.708 303.303 964.661 303.31C965.628 303.317 966.491 303.49 967.251 303.83C968.018 304.163 968.651 304.643 969.151 305.27C969.658 305.897 969.998 306.647 970.171 307.52L968.281 307.85C968.181 307.263 967.958 306.76 967.611 306.34C967.271 305.913 966.845 305.587 966.331 305.36C965.818 305.127 965.255 305.007 964.641 305C964.055 304.993 963.525 305.087 963.051 305.28C962.578 305.473 962.201 305.743 961.921 306.09C961.641 306.43 961.501 306.823 961.501 307.27C961.501 307.71 961.628 308.067 961.881 308.34C962.135 308.607 962.445 308.82 962.811 308.98C963.185 309.133 963.548 309.26 963.901 309.36L966.641 310.15C966.955 310.237 967.315 310.357 967.721 310.51C968.135 310.663 968.535 310.88 968.921 311.16C969.308 311.433 969.628 311.8 969.881 312.26C970.135 312.713 970.261 313.287 970.261 313.98C970.261 314.673 970.121 315.29 969.841 315.83C969.568 316.37 969.185 316.823 968.691 317.19C968.198 317.55 967.625 317.823 966.971 318.01C966.318 318.203 965.618 318.3 964.871 318.3ZM977.069 318.3C976.009 318.3 975.082 318.067 974.289 317.6C973.502 317.127 972.889 316.47 972.449 315.63C972.009 314.783 971.789 313.797 971.789 312.67C971.789 311.49 972.006 310.47 972.439 309.61C972.872 308.743 973.476 308.077 974.249 307.61C975.029 307.137 975.942 306.9 976.989 306.9C978.076 306.9 978.999 307.15 979.759 307.65C980.526 308.15 981.099 308.863 981.479 309.79C981.866 310.717 982.032 311.82 981.979 313.1H980.179V312.46C980.159 311.133 979.889 310.143 979.369 309.49C978.849 308.83 978.076 308.5 977.049 308.5C975.949 308.5 975.112 308.853 974.539 309.56C973.966 310.267 973.679 311.28 973.679 312.6C973.679 313.873 973.966 314.86 974.539 315.56C975.112 316.26 975.929 316.61 976.989 316.61C977.702 316.61 978.322 316.447 978.849 316.12C979.376 315.793 979.789 315.323 980.089 314.71L981.799 315.3C981.379 316.253 980.746 316.993 979.899 317.52C979.059 318.04 978.116 318.3 977.069 318.3ZM973.079 313.1V311.67H981.059V313.1H973.079ZM984.235 318V307.2H985.825V309.81L985.565 309.47C985.692 309.137 985.855 308.83 986.055 308.55C986.262 308.27 986.492 308.04 986.745 307.86C987.025 307.633 987.342 307.46 987.695 307.34C988.049 307.22 988.409 307.15 988.775 307.13C989.142 307.103 989.485 307.127 989.805 307.2V308.87C989.432 308.77 989.022 308.743 988.575 308.79C988.129 308.837 987.715 309 987.335 309.28C986.989 309.527 986.719 309.827 986.525 310.18C986.339 310.533 986.209 310.917 986.135 311.33C986.062 311.737 986.025 312.153 986.025 312.58V318H984.235ZM994.646 318L990.726 307.2H992.526L995.556 315.73L998.576 307.2H1000.39L996.466 318H994.646ZM1002.43 305.29V303.45H1004.21V305.29H1002.43ZM1002.43 318V307.2H1004.21V318H1002.43ZM1011.79 318.3C1010.69 318.3 1009.76 318.057 1009 317.57C1008.24 317.077 1007.66 316.4 1007.26 315.54C1006.86 314.68 1006.65 313.7 1006.64 312.6C1006.65 311.473 1006.86 310.483 1007.27 309.63C1007.68 308.77 1008.27 308.1 1009.04 307.62C1009.8 307.14 1010.73 306.9 1011.81 306.9C1012.95 306.9 1013.93 307.18 1014.75 307.74C1015.57 308.3 1016.13 309.067 1016.41 310.04L1014.65 310.57C1014.42 309.943 1014.05 309.457 1013.54 309.11C1013.03 308.763 1012.45 308.59 1011.79 308.59C1011.05 308.59 1010.44 308.763 1009.96 309.11C1009.48 309.45 1009.12 309.923 1008.89 310.53C1008.65 311.13 1008.53 311.82 1008.53 312.6C1008.54 313.8 1008.82 314.77 1009.36 315.51C1009.9 316.243 1010.71 316.61 1011.79 316.61C1012.49 316.61 1013.08 316.45 1013.55 316.13C1014.01 315.803 1014.37 315.333 1014.61 314.72L1016.41 315.19C1016.03 316.197 1015.45 316.967 1014.66 317.5C1013.86 318.033 1012.91 318.3 1011.79 318.3ZM1022.86 318.3C1021.8 318.3 1020.88 318.067 1020.08 317.6C1019.3 317.127 1018.68 316.47 1018.24 315.63C1017.8 314.783 1017.58 313.797 1017.58 312.67C1017.58 311.49 1017.8 310.47 1018.23 309.61C1018.67 308.743 1019.27 308.077 1020.04 307.61C1020.82 307.137 1021.74 306.9 1022.78 306.9C1023.87 306.9 1024.79 307.15 1025.55 307.65C1026.32 308.15 1026.89 308.863 1027.27 309.79C1027.66 310.717 1027.83 311.82 1027.77 313.1H1025.97V312.46C1025.95 311.133 1025.68 310.143 1025.16 309.49C1024.64 308.83 1023.87 308.5 1022.84 308.5C1021.74 308.5 1020.91 308.853 1020.33 309.56C1019.76 310.267 1019.47 311.28 1019.47 312.6C1019.47 313.873 1019.76 314.86 1020.33 315.56C1020.91 316.26 1021.72 316.61 1022.78 316.61C1023.5 316.61 1024.12 316.447 1024.64 316.12C1025.17 315.793 1025.58 315.323 1025.88 314.71L1027.59 315.3C1027.17 316.253 1026.54 316.993 1025.69 317.52C1024.85 318.04 1023.91 318.3 1022.86 318.3ZM1018.87 313.1V311.67H1026.85V313.1H1018.87ZM1034.11 318.29C1032.82 318.29 1031.77 318.01 1030.94 317.45C1030.12 316.883 1029.62 316.093 1029.43 315.08L1031.25 314.79C1031.4 315.377 1031.73 315.843 1032.26 316.19C1032.79 316.53 1033.44 316.7 1034.22 316.7C1034.96 316.7 1035.54 316.547 1035.96 316.24C1036.38 315.933 1036.59 315.517 1036.59 314.99C1036.59 314.683 1036.52 314.437 1036.38 314.25C1036.24 314.057 1035.95 313.877 1035.51 313.71C1035.08 313.543 1034.42 313.343 1033.54 313.11C1032.59 312.857 1031.84 312.593 1031.29 312.32C1030.74 312.047 1030.35 311.73 1030.12 311.37C1029.89 311.01 1029.77 310.573 1029.77 310.06C1029.77 309.427 1029.94 308.873 1030.29 308.4C1030.64 307.92 1031.12 307.55 1031.74 307.29C1032.37 307.03 1033.09 306.9 1033.92 306.9C1034.74 306.9 1035.47 307.03 1036.12 307.29C1036.77 307.55 1037.29 307.92 1037.68 308.4C1038.08 308.873 1038.32 309.427 1038.39 310.06L1036.57 310.39C1036.48 309.81 1036.2 309.353 1035.73 309.02C1035.26 308.687 1034.66 308.51 1033.92 308.49C1033.22 308.463 1032.65 308.587 1032.21 308.86C1031.78 309.133 1031.56 309.503 1031.56 309.97C1031.56 310.23 1031.64 310.453 1031.8 310.64C1031.97 310.827 1032.27 311.003 1032.71 311.17C1033.16 311.337 1033.8 311.527 1034.65 311.74C1035.6 311.98 1036.35 312.243 1036.9 312.53C1037.45 312.81 1037.85 313.143 1038.08 313.53C1038.31 313.91 1038.43 314.38 1038.43 314.94C1038.43 315.98 1038.05 316.8 1037.28 317.4C1036.51 317.993 1035.46 318.29 1034.11 318.29Z" fill="white" fill-opacity="0.5"/>
<path opacity="0.32" d="M1509.16 305.531L1509.16 305.53C1510.67 297.005 1515.67 290.843 1522.6 287.232C1529.53 283.629 1538.37 282.575 1547.61 284.198L1547.61 284.198C1556.85 285.834 1564.8 289.848 1570.08 295.604C1575.36 301.369 1577.95 308.868 1576.44 317.395C1573.44 334.446 1555.91 345.534 1537.37 342.262C1528.18 340.639 1520.05 337.493 1514.76 331.701C1509.44 325.883 1507.06 317.482 1509.16 305.531ZM1488.21 469.113L1488.21 469.113C1481.57 474.68 1473.78 476.195 1466.14 474.503C1458.52 472.813 1451.07 467.934 1445.04 460.749L1445.04 460.749C1439.01 453.56 1435.5 445.373 1435.16 437.572C1434.82 429.757 1437.66 422.35 1444.29 416.787C1453.59 408.988 1462.06 406.854 1469.75 408.549C1477.41 410.237 1484.2 415.701 1490.2 422.855C1502.3 437.277 1501.47 457.988 1488.21 469.113ZM1281.66 341.168C1313.05 342.503 1344.2 342.025 1375.3 341.548C1392.24 341.288 1409.16 341.028 1426.1 341.062L1426.41 341.062L1426.55 341.34L1441.77 372.069C1441.78 372.085 1441.8 372.103 1441.81 372.122C1441.82 372.154 1441.84 372.186 1441.85 372.217L1449.46 387.565L1449.46 387.566L1451.99 392.669L1451.54 392.892L1451.99 392.669C1454.75 398.221 1452.36 404.862 1446.71 407.391L1446.71 407.391L1446.71 407.391L1446.71 407.391L1446.71 407.391L1446.7 407.396C1446.69 407.401 1446.67 407.411 1446.64 407.424C1446.59 407.451 1446.51 407.495 1446.39 407.561C1446.15 407.693 1445.79 407.912 1445.27 408.253C1444.24 408.936 1442.63 410.107 1440.32 412.05C1424.58 425.27 1425.94 447.594 1440.31 464.712L1440.31 464.712C1454.67 481.835 1476.43 487.056 1492.18 473.842C1507.75 460.775 1509.18 436.619 1495.46 419.577C1475.18 394.731 1457.98 368.603 1442.03 341.95L1441.57 341.179L1442.47 341.193C1474.13 341.682 1505.87 343.506 1537.83 348.611C1546.6 349.838 1554.94 347.774 1562.42 344.605L1562.42 344.605C1564.26 343.827 1566.34 342.993 1568.6 342.091C1576.39 338.973 1586.2 335.042 1595.13 329.783C1606.65 322.999 1616.52 314.091 1618.64 302.041L1618.64 302.04C1618.69 301.772 1618.7 301.574 1618.7 301.434C1618.67 301.451 1618.64 301.472 1618.6 301.498C1618.28 301.693 1617.86 302.056 1617.32 302.574C1616.79 303.086 1616.17 303.725 1615.49 304.451C1615.2 304.754 1614.9 305.072 1614.59 305.402C1611.94 308.214 1608.5 311.871 1605.08 314.267L1605.08 314.268C1597.4 319.641 1592.2 320.307 1588.67 318.601C1585.18 316.912 1583.6 313.007 1582.86 309.853L1582.85 309.817L1582.85 309.78C1582.75 308.555 1582.56 307.322 1582.3 306.137L1582.29 306.108L1582.29 306.078C1582.26 305.77 1582.24 305.501 1582.23 305.282L1582.1 305.282C1578.65 291.469 1565.64 281.115 1548.68 278.123L1548.77 277.631L1548.68 278.123C1526.68 274.235 1506.65 284.219 1503.09 304.459L1503.09 304.459C1502.56 307.445 1502.35 309.451 1502.27 310.704C1502.23 311.33 1502.23 311.768 1502.23 312.045C1502.24 312.183 1502.24 312.282 1502.24 312.343C1502.24 312.357 1502.24 312.369 1502.25 312.379C1502.25 312.392 1502.25 312.402 1502.25 312.409L1502.25 312.422L1502.25 312.422L1502.25 312.422L1502.25 312.422L1502.25 312.423L1502.25 312.423L1502.25 312.435C1502.27 312.703 1502.26 312.994 1502.25 313.245C1502.25 313.35 1502.25 313.448 1502.25 313.535C1502.26 313.624 1502.26 313.725 1502.25 313.841C1502.12 319.39 1497.87 324 1492.15 324.363L1434.16 328.048L1433.86 328.067L1433.7 327.799C1425.11 312.971 1416.82 298.027 1408.53 283.085C1393.41 255.831 1378.3 228.583 1361.36 202.054C1361.34 202.047 1361.32 202.039 1361.3 202.031C1361.15 201.98 1360.95 201.908 1360.71 201.825C1360.22 201.658 1359.57 201.445 1358.91 201.258C1358.24 201.07 1357.59 200.916 1357.11 200.857C1357.02 200.848 1356.95 200.841 1356.89 200.837L1409.29 306.538L1408.84 306.76L1409.29 306.538L1420.04 328.234L1420.37 328.907L1419.62 328.955L1396.17 330.452L1396.17 330.452L1278.37 337.911C1278.41 337.965 1278.45 338.024 1278.5 338.089C1278.79 338.483 1279.25 338.966 1279.75 339.446C1280.24 339.922 1280.75 340.38 1281.14 340.719C1281.33 340.888 1281.5 341.028 1281.61 341.124C1281.63 341.14 1281.65 341.154 1281.66 341.168ZM1278.21 337.606C1278.21 337.6 1278.21 337.597 1278.21 337.596C1278.21 337.596 1278.21 337.599 1278.21 337.606ZM1356.53 200.856C1356.53 200.857 1356.53 200.856 1356.54 200.853C1356.53 200.855 1356.53 200.856 1356.53 200.856ZM1427.23 332.73C1428.14 331.161 1430.12 330.636 1431.68 331.538C1433.25 332.439 1433.79 334.42 1432.88 335.99C1431.98 337.554 1429.99 338.081 1428.43 337.179C1426.86 336.277 1426.33 334.292 1427.23 332.73Z" stroke="#CEA561"/>
<path opacity="0.3" d="M450.643 476.591L450.641 476.589C416.114 449.184 385.269 419.991 354.553 384.399L354.197 383.987L354.638 383.667C355.394 383.121 356.13 382.586 356.844 382.067C358.549 380.827 360.13 379.677 361.559 378.675L361.561 378.674C364.07 376.928 369.526 373.317 374.347 370.147C376.76 368.561 379.015 367.083 380.668 366.003C381.494 365.462 382.17 365.021 382.639 364.715L383.181 364.362L383.322 364.269L383.358 364.246L383.368 364.24L383.37 364.238L383.37 364.238C383.371 364.238 383.371 364.238 383.644 364.657L383.371 364.238L383.598 364.09L383.845 364.199L393.718 368.556L465.563 323.879C464.996 318.815 463.891 314.607 462.082 311.499C460.281 308.403 457.788 306.402 454.404 305.714L382.37 350.508C382.327 350.595 382.262 350.719 382.173 350.872C381.994 351.185 381.715 351.623 381.312 352.145C380.506 353.19 379.203 354.566 377.203 355.929L377.202 355.929C376.371 356.492 373.912 358.071 370.575 360.213C369.048 361.193 367.338 362.291 365.516 363.464C359.701 367.206 352.734 371.717 346.906 375.612L346.652 375.782L346.385 375.633C343.482 374.019 339.777 374.294 337.178 376.622L337.177 376.623C334.594 378.931 333.896 382.517 335.13 385.556L335.175 385.666L335.165 385.784C335.032 387.415 333.952 389.038 332.039 390.514C330.118 391.996 327.302 393.376 323.56 394.518C320.246 395.532 316.089 395.917 312.9 396.212C312.526 396.247 312.165 396.281 311.821 396.314C310.995 396.393 310.264 396.47 309.661 396.555C309.087 396.637 308.658 396.723 308.378 396.816C308.455 396.866 308.551 396.923 308.672 396.987L308.672 396.987C318.26 402.079 329.249 398.93 339.37 393.507L339.78 393.288L340.029 393.681C363.75 431.126 391.976 464.647 425.729 502.283L425.736 502.29L425.742 502.297C425.903 502.492 426.201 502.799 426.472 503.07C426.605 503.203 426.727 503.322 426.816 503.408C426.86 503.452 426.896 503.486 426.921 503.51L426.949 503.538L426.955 503.543C433.677 509.72 444.12 509.895 451.052 503.677L451.052 503.677C458.434 497.069 459.059 485.715 452.436 478.343L452.433 478.34C452.159 478.029 451.713 477.593 451.324 477.224C451.132 477.042 450.958 476.881 450.832 476.764C450.769 476.706 450.718 476.659 450.683 476.627L450.643 476.591ZM345.711 380.706C347.819 381.923 348.532 384.631 347.312 386.744C346.1 388.843 343.398 389.578 341.291 388.362C339.176 387.14 338.46 384.433 339.672 382.333C340.893 380.22 343.594 379.484 345.711 380.706Z" stroke="#CEA561"/>
<path opacity="0.4" d="M954.118 394.755L954.248 394.272L954.73 394.401L1007.84 408.631L1008.32 408.76L1008.19 409.243L1007.91 410.294L1007.79 410.733L1007.34 410.657C989.123 407.565 971.384 402.842 954.145 396.403L953.719 396.244L953.837 395.805L954.118 394.755ZM1000.32 434.765L1000.41 434.429L1000.75 434.397L1004.6 434.037L1008.91 417.969L1013.18 402.043L1007.39 400.493L1006.01 405.665L1005.88 406.148L1005.39 406.019L1003.14 405.416L1002.66 405.286L1002.79 404.803L1004.18 399.631L1002.9 399.289L1001.51 404.461L1001.38 404.944L1000.9 404.814L998.648 404.211L998.165 404.082L998.294 403.599L999.68 398.427L998.396 398.082L997.01 403.254L996.88 403.737L996.397 403.608L994.147 403.005L993.664 402.876L993.794 402.393L995.179 397.221L993.893 396.876L992.508 402.048L992.378 402.531L991.895 402.402L989.648 401.8L989.165 401.67L989.295 401.187L990.681 396.015L989.395 395.671L988.009 400.843L987.879 401.326L987.396 401.196L985.146 400.593L984.663 400.464L984.793 399.981L986.179 394.809L984.9 394.466L983.514 399.638L983.384 400.121L982.901 399.992L980.651 399.389L980.168 399.259L980.298 398.777L981.684 393.604L980.397 393.26L979.012 398.432L978.882 398.915L978.399 398.785L976.149 398.182L975.666 398.053L975.795 397.57L977.181 392.398L975.899 392.054L974.513 397.226L974.383 397.709L973.9 397.58L971.65 396.977L971.167 396.848L971.297 396.365L972.683 391.193L971.402 390.849L970.016 396.021L969.886 396.504L969.403 396.375L967.148 395.771L966.665 395.641L966.794 395.158L968.18 389.986L966.903 389.644L965.517 394.816L965.388 395.299L964.905 395.17L962.653 394.566L962.17 394.437L962.299 393.954L963.685 388.782L962.401 388.438L961.015 393.61L960.886 394.093L960.403 393.963L958.154 393.361L957.671 393.231L957.801 392.748L959.187 387.576L953.4 386.026L949.133 401.952L944.827 418.02L947.982 420.257L948.266 420.458L948.176 420.795L948.17 420.817L948.164 420.84L948.158 420.863L948.152 420.886L948.145 420.909L948.139 420.931L948.133 420.954L948.127 420.977L948.121 421L948.115 421.023L948.109 421.046L948.103 421.068L948.096 421.091L948.09 421.114L948.084 421.137L948.078 421.16L948.072 421.183L948.066 421.206L948.06 421.229L948.054 421.251L948.047 421.274L948.041 421.297L948.035 421.32L948.029 421.343L948.023 421.366L948.017 421.389L948.011 421.412L948.004 421.435L947.998 421.458L947.992 421.481L947.986 421.504L947.98 421.527L947.974 421.549L947.968 421.572L947.961 421.595L947.955 421.618L947.949 421.641L947.943 421.664L947.937 421.687L947.931 421.71L947.924 421.733L947.918 421.756L947.912 421.779L947.906 421.802L947.9 421.825L947.894 421.848L947.887 421.871L947.881 421.894L947.875 421.917L947.869 421.94L947.863 421.963L947.857 421.987L947.85 422.01L947.844 422.033L947.838 422.056L947.832 422.079L947.826 422.102L947.82 422.125L947.813 422.148L947.807 422.171L947.801 422.194L947.795 422.217L947.789 422.24L947.782 422.263L947.776 422.287L947.77 422.31L947.764 422.333L947.758 422.356L947.751 422.379L947.745 422.402L947.739 422.425L947.733 422.448L947.727 422.472L947.72 422.495L947.714 422.518L947.708 422.541L947.702 422.564L947.696 422.587L947.689 422.61L947.683 422.634L947.677 422.657L947.671 422.68L947.665 422.703L947.658 422.726L947.652 422.75L947.646 422.773L947.64 422.796L947.634 422.819L947.627 422.842L947.621 422.866L947.615 422.889L947.609 422.912L947.602 422.935L947.596 422.958L947.59 422.982L947.584 423.005L947.578 423.028L947.571 423.051L947.565 423.075L947.559 423.098L947.553 423.121L947.546 423.144L947.54 423.168L947.534 423.191L947.528 423.214L947.521 423.237L947.515 423.261L947.509 423.284L947.503 423.307L947.496 423.331L947.49 423.354L947.484 423.377L947.478 423.4L947.472 423.424L947.465 423.447L947.459 423.47L947.453 423.494L947.447 423.517L947.44 423.54L947.434 423.564L947.428 423.587L947.422 423.61L947.415 423.634L947.409 423.657L947.403 423.68L947.396 423.704L947.39 423.727L947.384 423.75L947.378 423.774L947.371 423.797L947.365 423.821L947.359 423.844L947.353 423.867L947.346 423.891L947.34 423.914L947.334 423.937L947.328 423.961L947.321 423.984L947.315 424.008L947.309 424.031L947.303 424.054L947.296 424.078L947.29 424.101L947.284 424.125L947.277 424.148L947.271 424.171L947.265 424.195L947.259 424.218L947.252 424.242L947.246 424.265L947.24 424.289L947.233 424.312L947.227 424.336L947.221 424.359L947.215 424.382L947.208 424.406L947.202 424.429L947.196 424.453L947.189 424.476L947.183 424.5L947.177 424.523L947.171 424.547L947.164 424.57L947.158 424.594L947.152 424.617L947.145 424.641L947.139 424.664L947.133 424.688L947.127 424.711L947.12 424.735L947.114 424.758L947.108 424.782L947.101 424.805L947.095 424.829L947.089 424.852L947.082 424.876L947.076 424.899L947.07 424.923L947.064 424.946L947.057 424.97L947.051 424.993L947.045 425.017L947.038 425.04L947.032 425.064L947.026 425.087L947.019 425.111L947.013 425.135L947.007 425.158L947 425.182L946.994 425.205L946.988 425.229L946.982 425.252L946.975 425.276L946.969 425.299L946.963 425.323L946.956 425.347L946.95 425.37L946.944 425.394L946.937 425.417L946.931 425.441L946.925 425.465L946.918 425.488L946.912 425.512L946.906 425.535L946.899 425.559L946.893 425.583L946.887 425.606L946.88 425.63L946.874 425.653L946.868 425.677L946.861 425.701L946.855 425.724L946.849 425.748L946.842 425.771L946.836 425.795L946.83 425.819L946.823 425.842L946.817 425.866L946.811 425.89L946.804 425.913L946.798 425.937L946.792 425.961L946.785 425.984L946.779 426.008L946.773 426.032L946.766 426.055L946.76 426.079L946.754 426.102L946.747 426.126L946.741 426.15L946.735 426.173L946.728 426.197L946.722 426.221L946.716 426.244L946.709 426.268L946.703 426.292L946.697 426.316L946.69 426.339L946.684 426.363L946.678 426.387L946.671 426.41L946.665 426.434L946.659 426.458L946.652 426.481L946.646 426.505L946.64 426.529L946.633 426.552L946.627 426.576L946.62 426.6L946.614 426.624L946.608 426.647L946.601 426.671L946.595 426.695L946.589 426.718L946.582 426.742L946.576 426.766L946.57 426.79L946.563 426.813L946.557 426.837L946.551 426.861L946.544 426.885L946.538 426.908L946.531 426.932L946.525 426.956L946.519 426.979L946.512 427.003L946.506 427.027L946.5 427.051L946.493 427.074L946.487 427.098L946.481 427.122L946.474 427.146L946.468 427.169L946.461 427.193L946.455 427.217L946.449 427.241L946.442 427.264L946.436 427.288L946.43 427.312L946.423 427.336L946.417 427.36L946.411 427.383L946.404 427.407L946.398 427.431L946.391 427.455L946.385 427.478L946.379 427.502L946.372 427.526L946.366 427.55L946.36 427.574L946.353 427.597L946.347 427.621L946.34 427.645L946.334 427.669L946.328 427.692L946.321 427.716L946.315 427.74L946.309 427.764L946.302 427.788L946.296 427.811L946.289 427.835L946.283 427.859L946.277 427.883L946.27 427.907L946.264 427.93L946.258 427.954L946.251 427.978L946.245 428.002L946.238 428.026L946.232 428.049L946.226 428.073L946.219 428.097L946.213 428.121L946.207 428.145L946.2 428.169L946.194 428.192L946.187 428.216L946.181 428.24L946.175 428.264L946.168 428.288L946.162 428.312L946.155 428.335L946.149 428.359L946.143 428.383L946.136 428.407L946.13 428.431L946.124 428.455L946.117 428.478L946.111 428.502L946.104 428.526L946.098 428.55L946.092 428.574L946.085 428.598L946.079 428.621L946.072 428.645L946.066 428.669L946.06 428.693L946.053 428.717L946.047 428.741L946.04 428.764L946.034 428.788L946.028 428.812L946.021 428.836L946.015 428.86L946.009 428.884L946.002 428.908L945.996 428.931L945.989 428.955L945.983 428.979L945.977 429.003L945.97 429.027L945.964 429.051L945.957 429.075L945.951 429.098L945.945 429.122L945.938 429.146L945.932 429.17L945.925 429.194L945.919 429.218L945.913 429.242L945.906 429.265L945.9 429.289L945.893 429.313L945.887 429.337L945.881 429.361L945.874 429.385L945.868 429.409L945.861 429.433L945.855 429.456L945.849 429.48L945.842 429.504L945.836 429.528L945.829 429.552L945.823 429.576L945.817 429.6L945.81 429.624L945.804 429.647L945.797 429.671L945.791 429.695L945.785 429.719L945.778 429.743L945.772 429.767L945.765 429.791L945.759 429.815L945.753 429.838L945.746 429.862L945.74 429.886L945.733 429.91L945.727 429.934L945.721 429.958L945.714 429.982L945.708 430.006L945.702 430.029L945.695 430.053L945.689 430.077L945.682 430.101L945.676 430.125L945.67 430.149L945.663 430.173L945.657 430.197L945.65 430.221L945.644 430.244L945.638 430.268L945.631 430.292L945.625 430.316L945.618 430.34L945.612 430.364L945.606 430.388L945.599 430.412L945.593 430.436L945.586 430.459L945.58 430.483L945.574 430.507L945.567 430.531L945.561 430.555L945.554 430.579L945.548 430.603L945.542 430.627L945.535 430.651L945.529 430.674L945.522 430.698L945.516 430.722L945.509 430.746L945.503 430.77L945.497 430.794L945.49 430.818L945.484 430.842L945.477 430.865L945.471 430.889L945.465 430.913L945.458 430.937L945.452 430.961L945.445 430.985L945.439 431.009L945.433 431.033L945.426 431.057L945.42 431.08L945.413 431.104L945.407 431.128L945.401 431.152L945.394 431.176L945.388 431.2L945.381 431.224L945.375 431.248L945.369 431.272L945.362 431.295L945.356 431.319L945.35 431.343L945.343 431.367L945.337 431.391L945.33 431.415L945.324 431.439L945.318 431.463L945.311 431.486L945.305 431.51L945.298 431.534L945.292 431.558L945.286 431.582L945.279 431.606L945.273 431.63L945.266 431.654L945.26 431.677L945.254 431.701L945.247 431.725L945.241 431.749L945.234 431.773L945.228 431.797L945.222 431.821L945.215 431.845L945.209 431.868L945.202 431.892L945.196 431.916L945.19 431.94L945.183 431.964L945.177 431.988L945.17 432.012L945.164 432.036L945.158 432.059L945.151 432.083L945.145 432.107L945.138 432.131L945.132 432.155L945.126 432.179L945.119 432.203L945.113 432.226L945.106 432.25L945.1 432.274L945.094 432.298L945.087 432.322L945.081 432.346L945.074 432.37L945.068 432.393L945.062 432.417L945.055 432.441L945.049 432.465L945.043 432.489L945.036 432.513L945.03 432.537L945.023 432.56L945.017 432.584L945.011 432.608L945.004 432.632L944.998 432.656L944.991 432.68L944.985 432.703L944.979 432.727L944.972 432.751L944.966 432.775L944.959 432.799L944.953 432.823L944.947 432.846L944.94 432.87L944.811 433.353L944.328 433.224L941.914 432.577L935.086 430.747L927.506 459.037L933.85 460.737L938.805 442.247L938.934 441.764L939.417 441.894L941.832 442.54L942.315 442.67L942.185 443.153L942.178 443.181L942.17 443.21L942.162 443.238L942.155 443.266L942.147 443.295L942.14 443.323L942.132 443.351L942.124 443.38L942.117 443.408L942.109 443.436L942.102 443.465L942.094 443.493L942.086 443.521L942.079 443.549L942.071 443.578L942.064 443.606L942.056 443.634L942.049 443.662L942.041 443.69L942.034 443.718L942.026 443.747L942.018 443.775L942.011 443.803L942.003 443.831L941.996 443.859L941.988 443.887L941.981 443.915L941.973 443.943L941.966 443.971L941.958 443.999L941.951 444.028L941.943 444.056L941.936 444.084L941.928 444.112L941.921 444.14L941.913 444.168L941.906 444.195L941.898 444.223L941.891 444.251L941.883 444.279L941.876 444.307L941.868 444.335L941.861 444.363L941.853 444.391L941.846 444.419L941.838 444.447L941.831 444.474L941.824 444.502L941.816 444.53L941.809 444.558L941.801 444.586L941.794 444.613L941.786 444.641L941.779 444.669L941.771 444.696L941.764 444.724L941.757 444.752L941.749 444.78L941.742 444.807L941.734 444.835L941.727 444.863L941.72 444.89L941.712 444.918L941.705 444.945L941.697 444.973L941.69 445.001L941.683 445.028L941.675 445.056L941.668 445.083L941.66 445.111L941.653 445.138L941.646 445.166L941.638 445.193L941.631 445.221L941.624 445.248L941.616 445.276L941.609 445.303L941.602 445.33L941.594 445.358L941.587 445.385L941.58 445.413L941.572 445.44L941.565 445.467L941.558 445.495L941.55 445.522L941.543 445.549L941.536 445.577L941.528 445.604L941.521 445.631L941.514 445.658L941.506 445.686L941.499 445.713L941.492 445.74L941.485 445.767L941.477 445.794L941.47 445.822L941.463 445.849L941.455 445.876L941.448 445.903L941.441 445.93L941.434 445.957L941.426 445.984L941.419 446.011L941.412 446.038L941.405 446.065L941.397 446.092L941.39 446.119L941.383 446.146L941.376 446.173L941.369 446.2L941.361 446.227L941.354 446.254L941.347 446.281L941.34 446.308L941.332 446.335L941.325 446.362L941.318 446.389L941.311 446.415L941.304 446.442L941.297 446.469L941.289 446.496L941.282 446.523L941.275 446.549L941.268 446.576L941.261 446.603L941.254 446.63L941.246 446.656L941.239 446.683L941.232 446.71L941.225 446.736L941.218 446.763L941.211 446.79L941.204 446.816L941.196 446.843L941.189 446.869L941.182 446.896L941.175 446.923L941.168 446.949L941.161 446.976L941.154 447.002L941.147 447.029L941.14 447.055L941.132 447.082L941.125 447.108L941.118 447.134L941.111 447.161L941.104 447.187L941.097 447.214L941.09 447.24L941.083 447.266L941.076 447.293L941.069 447.319L941.062 447.345L941.055 447.372L941.048 447.398L941.041 447.424L941.034 447.45L941.027 447.477L941.02 447.503L941.013 447.529L941.006 447.555L940.999 447.581L940.992 447.607L940.985 447.634L940.978 447.66L940.971 447.686L940.964 447.712L940.957 447.738L940.95 447.764L940.943 447.79L940.936 447.816L940.929 447.842L940.922 447.868L940.915 447.894L940.908 447.92L940.901 447.946L940.894 447.972L940.887 447.998L940.88 448.023L940.873 448.049L940.866 448.075L940.859 448.101L940.852 448.127L940.845 448.153L940.839 448.178L940.832 448.204L940.825 448.23L940.818 448.256L940.811 448.281L940.804 448.307L940.797 448.333L940.79 448.358L940.783 448.384L940.777 448.41L940.77 448.435L940.763 448.461L940.756 448.486L940.749 448.512L940.742 448.537L940.735 448.563L940.729 448.589L940.722 448.614L940.715 448.639L940.708 448.665L940.701 448.69L940.695 448.716L940.688 448.741L940.681 448.767L940.674 448.792L940.667 448.817L940.661 448.843L940.654 448.868L940.647 448.893L940.64 448.919L940.633 448.944L940.627 448.969L940.62 448.994L940.613 449.019L940.606 449.045L940.6 449.07L940.593 449.095L940.586 449.12L940.579 449.145L940.573 449.17L940.566 449.195L940.559 449.221L940.553 449.246L940.546 449.271L940.539 449.296L940.532 449.321L940.526 449.346L940.519 449.371L940.512 449.396L940.506 449.42L940.499 449.445L940.492 449.47L940.486 449.495L940.479 449.52L940.472 449.545L940.466 449.57L940.459 449.594L940.452 449.619L940.446 449.644L940.439 449.669L940.433 449.693L940.426 449.718L940.419 449.743L940.413 449.767L940.406 449.792L940.4 449.817L940.393 449.841L940.386 449.866L940.38 449.89L940.373 449.915L940.367 449.94L940.36 449.964L940.353 449.989L940.347 450.013L940.34 450.038L940.334 450.062L940.327 450.086L940.321 450.111L940.314 450.135L940.308 450.16L940.301 450.184L940.295 450.208L940.288 450.233L940.282 450.257L940.275 450.281L940.269 450.305L940.262 450.33L940.256 450.354L940.249 450.378L940.243 450.402L940.236 450.426L940.23 450.451L940.223 450.475L940.217 450.499L940.21 450.523L940.204 450.547L940.197 450.571L940.191 450.595L940.185 450.619L940.178 450.643L940.172 450.667L940.165 450.691L940.159 450.715L940.153 450.739L940.146 450.763L940.14 450.786L940.133 450.81L940.127 450.834L940.121 450.858L940.114 450.882L940.108 450.905L940.101 450.929L940.095 450.953L940.089 450.977L940.082 451L940.076 451.024L940.07 451.048L940.063 451.071L940.057 451.095L940.051 451.118L940.044 451.142L940.038 451.166L940.032 451.189L940.026 451.213L940.019 451.236L940.013 451.26L940.007 451.283L940 451.306L939.994 451.33L939.988 451.353L939.982 451.377L939.975 451.4L939.969 451.423L939.963 451.447L939.957 451.47L939.95 451.493L939.944 451.516L939.938 451.54L939.932 451.563L939.925 451.586L939.919 451.609L939.913 451.632L939.907 451.655L939.901 451.678L939.895 451.701L939.888 451.725L939.882 451.748L939.876 451.771L939.87 451.794L939.864 451.817L939.858 451.839L939.851 451.862L939.845 451.885L939.839 451.908L939.833 451.931L939.827 451.954L939.821 451.977L939.815 452L939.809 452.022L939.802 452.045L939.796 452.068L939.79 452.091L939.784 452.113L939.778 452.136L939.772 452.159L939.766 452.181L939.76 452.204L939.754 452.226L939.748 452.249L939.742 452.272L939.736 452.294L939.73 452.317L939.724 452.339L939.718 452.362L939.712 452.384L939.706 452.406L939.7 452.429L939.694 452.451L939.688 452.474L939.682 452.496L939.676 452.518L939.67 452.54L939.664 452.563L939.658 452.585L939.652 452.607L939.646 452.629L939.64 452.652L939.634 452.674L939.628 452.696L939.622 452.718L939.616 452.74L939.61 452.762L939.604 452.784L939.599 452.806L939.593 452.828L939.587 452.85L939.581 452.872L939.575 452.894L939.569 452.916L939.563 452.938L939.557 452.96L939.552 452.982L939.546 453.003L939.54 453.025L939.534 453.047L939.528 453.069L939.522 453.09L939.517 453.112L939.511 453.134L939.505 453.156L939.499 453.177L939.493 453.199L939.488 453.22L939.482 453.242L939.476 453.264L939.47 453.285L939.464 453.307L939.459 453.328L939.453 453.35L939.447 453.371L939.441 453.392L939.436 453.414L939.43 453.435L939.424 453.457L939.419 453.478L939.413 453.499L939.407 453.52L939.401 453.542L939.396 453.563L939.39 453.584L939.384 453.605L939.379 453.626L939.373 453.648L939.367 453.669L939.362 453.69L939.356 453.711L939.35 453.732L939.345 453.753L939.339 453.774L939.334 453.795L939.328 453.816L939.322 453.837L939.317 453.858L939.311 453.879L939.306 453.899L939.3 453.92L939.294 453.941L939.289 453.962L939.283 453.983L939.278 454.003L939.272 454.024L939.267 454.045L939.261 454.066L939.256 454.086L939.25 454.107L939.244 454.127L939.239 454.148L939.233 454.169L939.228 454.189L939.222 454.21L939.217 454.23L939.212 454.25L939.206 454.271L939.201 454.291L939.195 454.312L939.19 454.332L939.184 454.352L939.179 454.373L939.173 454.393L939.168 454.413L939.162 454.434L939.157 454.454L939.152 454.474L939.146 454.494L939.141 454.514L939.135 454.534L939.13 454.554L939.125 454.574L939.119 454.595L939.114 454.615L939.109 454.635L939.103 454.655L939.098 454.674L939.093 454.694L939.087 454.714L939.082 454.734L939.077 454.754L939.071 454.774L939.066 454.794L939.061 454.813L939.055 454.833L939.05 454.853L939.045 454.873L939.04 454.892L939.034 454.912L939.029 454.931L939.024 454.951L939.019 454.971L939.013 454.99L939.008 455.01L939.003 455.029L938.998 455.049L938.992 455.068L938.987 455.088L938.982 455.107L938.977 455.126L938.972 455.146L938.966 455.165L938.961 455.184L938.956 455.204L938.951 455.223L938.946 455.242L938.941 455.261L938.936 455.28L938.93 455.3L938.925 455.319L938.92 455.338L938.915 455.357L938.91 455.376L938.905 455.395L938.9 455.414L938.895 455.433L938.89 455.452L938.885 455.471L938.879 455.49L938.874 455.508L938.869 455.527L938.864 455.546C936.091 465.898 932.785 487.216 930.171 505.979C928.864 515.354 927.732 524.08 926.926 530.462C926.523 533.653 926.202 536.258 925.981 538.065C925.871 538.969 925.786 539.673 925.729 540.151L925.663 540.696L925.656 540.759C925.666 540.782 925.678 540.81 925.693 540.841C925.754 540.969 925.86 541.167 926.034 541.423C926.383 541.934 927.007 542.678 928.092 543.554C930.263 545.306 934.28 547.582 941.62 549.549C948.957 551.515 953.575 551.552 956.333 551.121C957.711 550.905 958.625 550.573 959.184 550.305C959.463 550.171 959.654 550.052 959.771 549.972C959.8 549.952 959.824 549.935 959.844 549.92L959.869 549.861L960.085 549.357C960.274 548.914 960.553 548.262 960.909 547.424C961.621 545.749 962.645 543.332 963.891 540.367C966.384 534.436 969.765 526.313 973.32 517.541C980.435 499.984 988.23 479.869 991.004 469.517L991.016 469.471L991.028 469.425L991.041 469.379L991.053 469.332L991.066 469.286L991.078 469.239L991.091 469.192L991.103 469.145L991.116 469.098L991.129 469.051L991.141 469.003L991.154 468.956L991.167 468.908L991.18 468.86L991.193 468.812L991.205 468.764L991.218 468.716L991.231 468.667L991.244 468.618L991.257 468.57L991.271 468.521L991.284 468.472L991.297 468.423L991.31 468.373L991.323 468.324L991.337 468.274L991.35 468.224L991.363 468.174L991.377 468.124L991.39 468.074L991.404 468.024L991.417 467.973L991.431 467.922L991.445 467.872L991.458 467.821L991.472 467.77L991.486 467.718L991.499 467.667L991.513 467.615L991.527 467.564L991.541 467.512L991.555 467.46L991.569 467.408L991.583 467.356L991.597 467.304L991.611 467.251L991.625 467.198L991.639 467.146L991.653 467.093L991.667 467.04L991.682 466.987L991.696 466.933L991.71 466.88L991.725 466.826L991.739 466.773L991.753 466.719L991.768 466.665L991.782 466.611L991.797 466.557L991.811 466.502L991.826 466.448L991.841 466.393L991.855 466.339L991.87 466.284L991.885 466.229L991.9 466.174L991.914 466.118L991.929 466.063L991.944 466.007L991.959 465.952L991.974 465.896L991.989 465.84L992.004 465.784L992.019 465.728L992.034 465.672L992.049 465.615L992.064 465.559L992.079 465.502L992.095 465.446L992.11 465.389L992.125 465.332L992.14 465.274L992.156 465.217L992.171 465.16L992.187 465.102L992.202 465.045L992.217 464.987L992.233 464.929L992.248 464.871L992.264 464.813L992.28 464.755L992.295 464.697L992.311 464.638L992.327 464.58L992.342 464.521L992.358 464.462L992.374 464.403L992.39 464.344L992.406 464.285L992.421 464.226L992.437 464.166L992.453 464.107L992.469 464.047L992.485 463.988L992.501 463.928L992.517 463.868L992.533 463.808L992.55 463.748L992.566 463.687L992.582 463.627L992.598 463.566L992.614 463.506L992.631 463.445L992.647 463.384L992.663 463.323L992.68 463.262L992.696 463.201L992.712 463.14L992.729 463.078L992.745 463.017L992.762 462.955L992.778 462.894L992.795 462.832L992.812 462.77L992.828 462.708L992.845 462.646L992.861 462.584L992.878 462.521L992.895 462.459L992.912 462.396L992.928 462.334L992.945 462.271L992.962 462.208L992.979 462.145L992.996 462.082L993.013 462.019L993.03 461.956L993.047 461.893L993.064 461.829L993.081 461.766L993.098 461.702L993.115 461.638L993.132 461.574L993.149 461.51L993.166 461.446L993.183 461.382L993.201 461.318L993.218 461.254L993.235 461.189L993.252 461.125L993.27 461.06L993.287 460.996L993.304 460.931L993.322 460.866L993.339 460.801L993.357 460.736L993.374 460.671L993.391 460.606L993.409 460.54L993.427 460.475L993.444 460.409L993.462 460.344L993.479 460.278L993.497 460.212L993.515 460.146L993.532 460.08L993.55 460.014L993.568 459.948L993.585 459.882L993.603 459.816L993.621 459.749L993.639 459.683L993.657 459.616L993.674 459.55L993.692 459.483L993.71 459.416L993.728 459.349L993.746 459.282L993.764 459.215L993.782 459.148L993.8 459.081L993.818 459.013L993.836 458.946L993.854 458.878L993.872 458.811L993.89 458.743L993.909 458.675L993.927 458.608L993.945 458.54L993.963 458.472L993.981 458.404L994 458.336L994.018 458.267L994.036 458.199L994.055 458.131L994.073 458.062L994.091 457.994L994.11 457.925L994.128 457.857L994.146 457.788L994.165 457.719L994.183 457.65L994.202 457.581L994.22 457.512L994.239 457.443L994.257 457.374L994.276 457.305L994.294 457.236L994.313 457.166L994.332 457.097L994.35 457.027L994.369 456.958L994.388 456.888L994.406 456.818L994.425 456.748L994.444 456.679L994.462 456.609L994.481 456.539L994.5 456.469L994.519 456.398L994.538 456.328L994.556 456.258L994.575 456.188L994.594 456.117L994.613 456.047L994.632 455.976L994.651 455.906L994.67 455.835L994.689 455.764L994.708 455.693L994.727 455.623L994.746 455.552L994.765 455.481L994.784 455.41L994.803 455.339L994.822 455.268L994.841 455.196L994.86 455.125L994.879 455.054L994.898 454.982L994.917 454.911L994.937 454.839L994.956 454.768L994.975 454.696L994.994 454.625L995.013 454.553L995.033 454.481L995.052 454.409L995.071 454.337L995.09 454.265L995.11 454.193L995.129 454.121L995.148 454.049L995.168 453.977L995.187 453.905L995.206 453.833L995.226 453.76L995.245 453.688L995.264 453.616L995.284 453.543L995.303 453.471L995.323 453.398L995.342 453.325L995.362 453.253L995.381 453.18L995.401 453.107L995.42 453.034L995.44 452.962L995.459 452.889L995.479 452.816L995.498 452.743L995.518 452.67L995.537 452.597L995.557 452.523L995.577 452.45L995.596 452.377L995.616 452.304L995.636 452.23L995.655 452.157L995.675 452.084L995.695 452.01L995.714 451.937L995.734 451.863L995.754 451.79L995.773 451.716L995.793 451.643L995.813 451.569L995.833 451.495L995.852 451.421L995.872 451.348L995.892 451.274L995.912 451.2L995.932 451.126L995.951 451.052L995.971 450.978L995.991 450.904L996.011 450.83L996.031 450.756L996.051 450.682L996.07 450.608L996.09 450.533L996.11 450.459L996.13 450.385L996.15 450.311L996.17 450.236L996.19 450.162L996.21 450.088L996.23 450.013L996.25 449.939L996.27 449.864L996.29 449.79L996.309 449.715L996.329 449.641L996.349 449.566L996.369 449.492L996.389 449.417L996.409 449.342L996.429 449.268L996.45 449.193L996.47 449.118L996.49 449.043L996.51 448.969L996.53 448.894L996.55 448.819L996.57 448.744L996.59 448.669L996.61 448.594L996.63 448.519L996.65 448.444L996.67 448.369L996.69 448.294L996.71 448.219L996.731 448.144L996.751 448.069L996.771 447.994L996.791 447.919L996.811 447.844L996.831 447.769L996.851 447.693L996.871 447.618L996.892 447.543L996.912 447.468L996.932 447.393L996.952 447.317L996.972 447.242L996.992 447.167L997.013 447.091L997.033 447.016L997.053 446.941L997.073 446.865L997.093 446.79L997.114 446.715L997.134 446.639L997.154 446.564L997.174 446.488L997.194 446.413L997.215 446.338L997.235 446.262L997.255 446.187L997.275 446.111L997.295 446.036L997.316 445.96L997.336 445.885L997.356 445.809L997.376 445.734L997.397 445.658L997.417 445.583L997.437 445.507L997.457 445.432L997.478 445.356L997.498 445.281L997.518 445.205L997.538 445.129L997.559 445.054L997.579 444.978L997.599 444.903L997.619 444.827L997.64 444.752L997.66 444.676L997.68 444.6L997.7 444.525L997.721 444.449L997.741 444.374L997.761 444.298L997.781 444.222L997.802 444.147L997.822 444.071L997.842 443.996L997.862 443.92L997.883 443.845L997.903 443.769L997.923 443.693L997.943 443.618L997.964 443.542L997.984 443.467L998.004 443.391L998.024 443.316L998.045 443.24L998.065 443.165L998.085 443.089L998.105 443.013L998.125 442.938L998.146 442.862L998.166 442.787L998.186 442.711L998.206 442.636L998.227 442.56L998.247 442.485L998.267 442.41L998.287 442.334L998.308 442.259L998.328 442.183L998.348 442.108L998.368 442.032L998.388 441.957L998.409 441.882L998.429 441.806L998.449 441.731L998.469 441.656L998.489 441.58L998.509 441.505L998.53 441.43L998.55 441.354L998.57 441.279L998.59 441.204L998.61 441.129L998.63 441.053L998.651 440.978L998.671 440.903L998.691 440.828L998.711 440.753L998.731 440.678L998.751 440.602L998.771 440.527L998.792 440.452L998.812 440.377L998.832 440.302L998.852 440.227L998.872 440.152L998.892 440.077L998.912 440.002L998.932 439.927L998.952 439.853L998.972 439.778L998.992 439.703L999.012 439.628L999.032 439.553L999.052 439.478L999.072 439.404L999.093 439.329L999.113 439.254L999.133 439.18L999.153 439.105L999.173 439.03L999.192 438.956L999.212 438.881L999.232 438.807L999.252 438.732L999.272 438.658L999.292 438.583L999.312 438.509L999.332 438.435L999.352 438.36L999.372 438.286L999.392 438.212L999.412 438.138L999.432 438.063L999.452 437.989L999.471 437.915L999.491 437.841L999.511 437.767L999.531 437.693L999.551 437.619L999.571 437.545L999.59 437.471L999.61 437.397L999.63 437.323L999.65 437.249L999.669 437.176L999.689 437.102L999.709 437.028L999.729 436.955L999.748 436.881L999.768 436.807L999.788 436.734L999.808 436.66L999.827 436.587L999.847 436.514L999.867 436.44L999.886 436.367L999.906 436.294L999.925 436.22L999.945 436.147L999.965 436.074L999.984 436.001L1000 435.928L1000.02 435.855L1000.04 435.782L1000.06 435.709L1000.08 435.636L1000.1 435.563L1000.12 435.49L1000.14 435.418L1000.16 435.345L1000.18 435.272L1000.2 435.2L1000.22 435.127L1000.24 435.055L1000.26 434.982L1000.28 434.91L1000.3 434.838L1000.32 434.765ZM959.915 549.863L959.915 549.864C959.916 549.863 959.917 549.862 959.917 549.862L959.915 549.863Z" stroke="#CEA561"/>
<path opacity="0.2" d="M553.666 169.299L553.662 169.303C553.658 169.307 553.651 169.314 553.641 169.323C553.638 169.326 553.635 169.329 553.632 169.332C553.602 169.359 553.553 169.403 553.482 169.464C553.339 169.586 553.107 169.775 552.76 170.031C552.066 170.543 550.913 171.322 549.098 172.375C536.868 179.426 522.764 173.346 515.074 160.027C509.15 149.768 508.886 138.344 514.638 130.434L514.939 130.02C514.945 130.015 514.951 130.009 514.957 130.003L514.98 129.979L515.001 129.953C515.505 129.291 516.065 128.663 516.674 128.047L516.698 128.023L516.719 127.996C518.068 126.201 519.475 123.575 518.804 120.907C518.124 118.201 515.385 115.72 509.103 114.039L509.103 114.039C506.298 113.291 502.807 113.095 500.139 112.945C499.827 112.927 499.526 112.91 499.239 112.893C498.547 112.852 497.937 112.81 497.433 112.757C497.065 112.719 496.771 112.675 496.551 112.627C496.575 112.613 496.601 112.598 496.628 112.582C503.909 108.378 512.966 109.623 521.671 112.696C528.403 115.073 534.825 118.505 539.937 121.237C541.428 122.034 542.809 122.771 544.052 123.406C549.048 125.954 553.813 129.412 557.032 134.565C565.653 148.931 575.205 162.411 585.251 175.407L586.109 174.911C579.948 159.918 573.106 145.081 564.967 130.524C557.715 117.358 561.595 101.179 573.719 94.18C585.944 87.1217 600.046 93.2041 607.738 106.527C615.429 119.847 613.652 135.104 601.419 142.158L601.419 142.158C599.612 143.201 598.378 143.804 597.604 144.144C597.216 144.313 596.944 144.417 596.773 144.478C596.687 144.508 596.627 144.527 596.59 144.539C596.571 144.544 596.559 144.548 596.552 144.55L596.548 144.551C596.547 144.551 596.547 144.551 596.547 144.551C596.547 144.551 596.547 144.551 596.547 144.551C596.547 144.551 596.547 144.551 596.546 144.551C596.546 144.551 596.546 144.551 596.546 144.551C592.29 145.628 589.817 149.95 591.052 154.146L553.666 169.299ZM553.666 169.299C553.827 169.131 554.021 168.984 554.173 168.869C554.207 168.843 554.239 168.819 554.268 168.796C554.3 168.764 554.359 168.705 554.432 168.656C557.494 166.214 561.92 166.416 564.696 169.325C564.696 169.325 564.696 169.325 564.696 169.325L596.871 203.035L596.944 203.111L596.98 203.21C600.657 213.374 604.168 223.569 607.677 233.761C614.691 254.127 621.701 274.484 630.034 294.575C630.123 294.626 630.25 294.697 630.402 294.781C630.714 294.953 631.13 295.175 631.552 295.38C631.926 295.56 632.288 295.719 632.583 295.818L609.736 217.877L610.577 217.392L666.677 276.177C666.738 275.872 666.781 275.48 666.812 275.068C666.847 274.6 666.863 274.128 666.871 273.772C666.875 273.598 666.876 273.453 666.877 273.35C653.661 256.198 639.6 239.967 625.556 223.755C618.393 215.486 611.234 207.222 604.194 198.844L604.126 198.764L604.097 198.663L595.507 169.356L595.468 169.221L595.471 169.209L592.159 157.929L592.159 157.928L591.052 154.147L553.666 169.299ZM554.129 137.478C547.598 126.149 533.84 121.769 523.371 127.813C518.134 130.837 515.276 135.583 514.558 140.988C513.843 146.38 515.258 152.406 518.512 158.042C521.764 163.676 526.276 167.915 531.303 169.992C536.344 172.075 541.884 171.974 547.121 168.951C554.429 164.732 557.863 159.695 558.595 154.236C559.322 148.809 557.361 143.076 554.129 137.478ZM554.129 137.478C554.129 137.478 554.129 137.478 554.129 137.478L553.696 137.728L554.129 137.478ZM601.735 203.178L601.732 203.179C600.586 203.829 599.114 203.445 598.44 202.298L598.438 202.295C597.772 201.14 598.179 199.658 599.322 198.998C600.476 198.332 601.956 198.725 602.622 199.879C603.289 201.033 602.889 202.511 601.735 203.178ZM568.676 129.08L568.675 129.079C562.144 117.751 565.226 103.648 575.688 97.6078C580.928 94.5826 586.47 94.4762 591.513 96.5553C596.542 98.6292 601.055 102.867 604.311 108.506C607.563 114.14 608.979 120.166 608.263 125.56C607.545 130.967 604.686 135.715 599.446 138.741C592.138 142.96 586.057 143.418 580.961 141.323C575.895 139.241 571.908 134.678 568.676 129.08ZM496.241 112.861C496.241 112.861 496.242 112.86 496.243 112.858C496.242 112.86 496.241 112.861 496.241 112.861Z" stroke="#CEA561"/>
</g>
<defs>
<clipPath id="clip0_0_554">
<rect width="1920" height="516" fill="white"/>
</clipPath>
</defs>
</svg>
