<svg width="204" height="40" viewBox="0 0 204 40" fill="none" xmlns="http://www.w3.org/2000/svg">
<mask id="path-1-outside-1_0_564" maskUnits="userSpaceOnUse" x="0" y="2.00024" width="117" height="28" fill="black">
<rect fill="white" y="2.00024" width="117" height="28"/>
<path d="M13.3529 28.4553C11.7317 28.4553 10.2244 28.1472 8.8308 27.531C7.43721 26.9053 6.21427 26.0426 5.16197 24.9429C4.11915 23.8337 3.30385 22.5397 2.71608 21.0607C2.13778 19.5818 1.84864 17.9892 1.84864 16.2827C1.84864 14.6616 2.11882 13.1211 2.65919 11.6611C3.19957 10.1917 3.98168 8.89291 5.00554 7.76477C6.0294 6.63662 7.26657 5.74548 8.71704 5.09135C10.177 4.43722 11.8171 4.11015 13.6373 4.11015C14.737 4.11015 15.813 4.23813 16.8653 4.4941C17.9176 4.75006 18.9083 5.11505 19.8373 5.58906C20.7758 6.06307 21.6196 6.63662 22.3685 7.30972L20.5768 10.1822C19.7235 9.329 18.6807 8.66064 17.4483 8.17715C16.2159 7.68418 14.955 7.4377 13.6657 7.4377C12.4238 7.4377 11.3194 7.66048 10.3524 8.10605C9.38539 8.55162 8.56536 9.17731 7.89226 9.98313C7.22865 10.7795 6.72146 11.7038 6.37069 12.7561C6.0294 13.7989 5.85876 14.9223 5.85876 16.1263C5.85876 17.4251 6.05311 18.6196 6.44179 19.7098C6.83048 20.7906 7.37085 21.7338 8.06291 22.5397C8.76444 23.336 9.57974 23.9522 10.5088 24.3883C11.4379 24.8149 12.438 25.0282 13.5093 25.0282C14.3815 25.0282 15.2252 24.886 16.0405 24.6016C16.8558 24.3172 17.5858 23.9095 18.2304 23.3786C18.8751 22.8478 19.387 22.2173 19.7662 21.4873C20.1454 20.7574 20.335 19.9516 20.335 19.0699V18.558H13.2818V15.6428H24.1318V18.6717C24.1318 20.1886 23.8285 21.549 23.2217 22.753C22.615 23.9569 21.795 24.9855 20.7616 25.8388C19.7378 26.6825 18.5859 27.3319 17.3061 27.7869C16.0263 28.2325 14.7085 28.4553 13.3529 28.4553ZM28.4599 28.0002V3.54134H32.0008V28.0002H28.4599ZM44.4971 28.4553C42.9234 28.4553 41.5013 28.1282 40.231 27.4741C38.9701 26.82 37.97 25.9099 37.2305 24.7438C36.491 23.5777 36.1213 22.2363 36.1213 20.7195C36.1213 19.1931 36.491 17.8517 37.2305 16.6951C37.97 15.529 38.9701 14.6189 40.231 13.9648C41.4919 13.3107 42.9139 12.9836 44.4971 12.9836C46.0708 12.9836 47.4881 13.3107 48.7489 13.9648C50.0193 14.6189 51.0194 15.529 51.7494 16.6951C52.4889 17.8517 52.8586 19.1931 52.8586 20.7195C52.8586 22.2363 52.4889 23.5777 51.7494 24.7438C51.0194 25.9099 50.0193 26.82 48.7489 27.4741C47.4881 28.1282 46.0708 28.4553 44.4971 28.4553ZM44.4971 25.4122C45.3882 25.4122 46.1845 25.2131 46.8861 24.8149C47.5971 24.4072 48.1564 23.8527 48.5641 23.1511C48.9717 22.4401 49.1756 21.6296 49.1756 20.7195C49.1756 19.7999 48.9717 18.9893 48.5641 18.2878C48.1564 17.5768 47.5971 17.0222 46.8861 16.624C46.1845 16.2258 45.3882 16.0268 44.4971 16.0268C43.6154 16.0268 42.8191 16.2258 42.1081 16.624C41.3971 17.0222 40.8377 17.5768 40.4301 18.2878C40.0224 18.9893 39.8186 19.7999 39.8186 20.7195C39.8186 21.6296 40.0224 22.4401 40.4301 23.1511C40.8377 23.8527 41.3971 24.4072 42.1081 24.8149C42.8191 25.2131 43.6154 25.4122 44.4971 25.4122ZM60.904 28.4553C59.681 28.4553 58.5908 28.2278 57.6333 27.7727C56.6853 27.3082 55.9126 26.6446 55.3154 25.7819L56.8796 23.4782C57.4389 24.2176 58.0599 24.7912 58.7425 25.1988C59.4345 25.6065 60.1503 25.8103 60.8897 25.8103C61.3448 25.8103 61.7477 25.7297 62.0985 25.5686C62.4492 25.3979 62.7289 25.1562 62.9375 24.8433C63.146 24.521 63.2503 24.1418 63.2503 23.7057C63.2503 23.2507 63.1318 22.8952 62.8948 22.6392C62.6578 22.3832 62.3023 22.151 61.8283 21.9424C61.3543 21.7338 60.757 21.4873 60.0365 21.2029C59.4298 20.947 58.8515 20.6626 58.3016 20.3497C57.7518 20.0369 57.2967 19.6435 56.9365 19.1694C56.5857 18.686 56.4103 18.0745 56.4103 17.335C56.4103 16.4913 56.6426 15.7424 57.1071 15.0882C57.5811 14.4341 58.2258 13.9222 59.0411 13.5524C59.8659 13.1827 60.8044 12.9978 61.8567 12.9978C62.6151 12.9978 63.3783 13.1353 64.1462 13.4102C64.9141 13.6757 65.682 14.0644 66.4499 14.5763L65.17 16.8089C64.0609 15.8893 62.9659 15.4295 61.8852 15.4295C61.25 15.4295 60.7381 15.5812 60.3494 15.8846C59.9702 16.1879 59.7806 16.5766 59.7806 17.0506C59.7806 17.4393 59.9465 17.7711 60.2783 18.046C60.6101 18.321 61.0225 18.5627 61.5154 18.7713C62.0084 18.9798 62.5014 19.1789 62.9943 19.3685C63.7717 19.6529 64.4543 19.9563 65.0421 20.2786C65.6298 20.601 66.0896 21.0181 66.4214 21.53C66.7532 22.0419 66.9191 22.7245 66.9191 23.5777C66.9191 24.6016 66.6727 25.4785 66.1797 26.2085C65.6962 26.9385 65.0041 27.4978 64.1035 27.8865C63.2029 28.2657 62.1364 28.4553 60.904 28.4553ZM75.1487 28.4553C73.9257 28.4553 72.8355 28.2278 71.878 27.7727C70.93 27.3082 70.1574 26.6446 69.5601 25.7819L71.1243 23.4782C71.6837 24.2176 72.3046 24.7912 72.9872 25.1988C73.6793 25.6065 74.395 25.8103 75.1345 25.8103C75.5895 25.8103 75.9924 25.7297 76.3432 25.5686C76.694 25.3979 76.9736 25.1562 77.1822 24.8433C77.3908 24.521 77.495 24.1418 77.495 23.7057C77.495 23.2507 77.3765 22.8952 77.1395 22.6392C76.9025 22.3832 76.547 22.151 76.073 21.9424C75.599 21.7338 75.0017 21.4873 74.2813 21.2029C73.6745 20.947 73.0962 20.6626 72.5464 20.3497C71.9965 20.0369 71.5415 19.6435 71.1812 19.1694C70.8305 18.686 70.6551 18.0745 70.6551 17.335C70.6551 16.4913 70.8873 15.7424 71.3519 15.0882C71.8259 14.4341 72.4705 13.9222 73.2858 13.5524C74.1106 13.1827 75.0491 12.9978 76.1015 12.9978C76.8599 12.9978 77.623 13.1353 78.3909 13.4102C79.1588 13.6757 79.9267 14.0644 80.6946 14.5763L79.4148 16.8089C78.3056 15.8893 77.2106 15.4295 76.1299 15.4295C75.4947 15.4295 74.9828 15.5812 74.5941 15.8846C74.2149 16.1879 74.0253 16.5766 74.0253 17.0506C74.0253 17.4393 74.1912 17.7711 74.523 18.046C74.8548 18.321 75.2672 18.5627 75.7602 18.7713C76.2531 18.9798 76.7461 19.1789 77.2391 19.3685C78.0164 19.6529 78.699 19.9563 79.2868 20.2786C79.8746 20.601 80.3344 21.0181 80.6662 21.53C80.998 22.0419 81.1639 22.7245 81.1639 23.5777C81.1639 24.6016 80.9174 25.4785 80.4244 26.2085C79.9409 26.9385 79.2489 27.4978 78.3483 27.8865C77.4476 28.2657 76.3811 28.4553 75.1487 28.4553Z"/>
<path d="M99.3945 28.4553C97.9725 28.4553 96.7021 28.1993 95.5835 27.6874C94.4743 27.166 93.5974 26.4313 92.9527 25.4833C92.3176 24.5258 92 23.3976 92 22.0988C92 20.563 92.4692 19.2216 93.4078 18.0745C94.3558 16.9274 95.7731 15.9462 97.6596 15.1309C96.9771 14.363 96.432 13.6804 96.0243 13.0832C95.6167 12.4764 95.3228 11.9029 95.1427 11.3625C94.972 10.8126 94.8867 10.2533 94.8867 9.68451C94.8867 8.51844 95.1711 7.51828 95.7399 6.68402C96.3182 5.84977 97.0908 5.20985 98.0578 4.76428C99.0343 4.31871 100.12 4.09593 101.314 4.09593C102.348 4.09593 103.258 4.25235 104.045 4.5652C104.841 4.86857 105.505 5.29044 106.035 5.83081C106.576 6.3617 106.983 6.96369 107.258 7.63678C107.533 8.3004 107.671 8.98771 107.671 9.69873C107.671 10.9217 107.263 12.0072 106.448 12.9552C105.632 13.8937 104.447 14.7659 102.893 15.5717L107.671 20.691C107.908 20.4919 108.168 20.2407 108.453 19.9373C108.747 19.634 109.041 19.3211 109.335 18.9988C109.638 18.667 109.913 18.3541 110.159 18.0603C110.415 17.7569 110.619 17.5151 110.771 17.335L113.089 19.4823C112.605 20.0985 112.084 20.7384 111.524 21.402C110.965 22.0562 110.458 22.6108 110.003 23.0658L114.624 28.0002H109.96L107.258 25.0993C106.13 26.1706 104.903 27.0001 103.575 27.5879C102.258 28.1661 100.864 28.4553 99.3945 28.4553ZM99.878 24.9287C100.731 24.9287 101.58 24.7296 102.423 24.3314C103.277 23.9238 104.082 23.3407 104.841 22.5823L99.5936 17.1359C98.5034 17.6005 97.6549 18.2214 97.0482 18.9988C96.4414 19.7762 96.1381 20.6341 96.1381 21.5727C96.1381 22.2837 96.304 22.8904 96.6358 23.3929C96.9771 23.8953 97.4321 24.2793 98.0009 24.5447C98.5697 24.8007 99.1954 24.9287 99.878 24.9287ZM100.973 13.5098C101.712 13.1211 102.338 12.7371 102.85 12.3579C103.371 11.9787 103.76 11.5711 104.016 11.135C104.282 10.6989 104.414 10.2059 104.414 9.65606C104.414 9.08725 104.282 8.5848 104.016 8.14871C103.76 7.71263 103.409 7.37608 102.964 7.13907C102.528 6.89259 102.035 6.76935 101.485 6.76935C100.926 6.76935 100.433 6.89259 100.006 7.13907C99.5794 7.37608 99.2428 7.70789 98.9964 8.13449C98.7499 8.5611 98.6266 9.04459 98.6266 9.58496C98.6266 10.0021 98.7025 10.405 98.8541 10.7937C99.0153 11.1824 99.2665 11.5948 99.6078 12.0309C99.9491 12.4669 100.404 12.9599 100.973 13.5098Z"/>
</mask>
<path d="M13.3529 28.4553C11.7317 28.4553 10.2244 28.1472 8.8308 27.531C7.43721 26.9053 6.21427 26.0426 5.16197 24.9429C4.11915 23.8337 3.30385 22.5397 2.71608 21.0607C2.13778 19.5818 1.84864 17.9892 1.84864 16.2827C1.84864 14.6616 2.11882 13.1211 2.65919 11.6611C3.19957 10.1917 3.98168 8.89291 5.00554 7.76477C6.0294 6.63662 7.26657 5.74548 8.71704 5.09135C10.177 4.43722 11.8171 4.11015 13.6373 4.11015C14.737 4.11015 15.813 4.23813 16.8653 4.4941C17.9176 4.75006 18.9083 5.11505 19.8373 5.58906C20.7758 6.06307 21.6196 6.63662 22.3685 7.30972L20.5768 10.1822C19.7235 9.329 18.6807 8.66064 17.4483 8.17715C16.2159 7.68418 14.955 7.4377 13.6657 7.4377C12.4238 7.4377 11.3194 7.66048 10.3524 8.10605C9.38539 8.55162 8.56536 9.17731 7.89226 9.98313C7.22865 10.7795 6.72146 11.7038 6.37069 12.7561C6.0294 13.7989 5.85876 14.9223 5.85876 16.1263C5.85876 17.4251 6.05311 18.6196 6.44179 19.7098C6.83048 20.7906 7.37085 21.7338 8.06291 22.5397C8.76444 23.336 9.57974 23.9522 10.5088 24.3883C11.4379 24.8149 12.438 25.0282 13.5093 25.0282C14.3815 25.0282 15.2252 24.886 16.0405 24.6016C16.8558 24.3172 17.5858 23.9095 18.2304 23.3786C18.8751 22.8478 19.387 22.2173 19.7662 21.4873C20.1454 20.7574 20.335 19.9516 20.335 19.0699V18.558H13.2818V15.6428H24.1318V18.6717C24.1318 20.1886 23.8285 21.549 23.2217 22.753C22.615 23.9569 21.795 24.9855 20.7616 25.8388C19.7378 26.6825 18.5859 27.3319 17.3061 27.7869C16.0263 28.2325 14.7085 28.4553 13.3529 28.4553ZM28.4599 28.0002V3.54134H32.0008V28.0002H28.4599ZM44.4971 28.4553C42.9234 28.4553 41.5013 28.1282 40.231 27.4741C38.9701 26.82 37.97 25.9099 37.2305 24.7438C36.491 23.5777 36.1213 22.2363 36.1213 20.7195C36.1213 19.1931 36.491 17.8517 37.2305 16.6951C37.97 15.529 38.9701 14.6189 40.231 13.9648C41.4919 13.3107 42.9139 12.9836 44.4971 12.9836C46.0708 12.9836 47.4881 13.3107 48.7489 13.9648C50.0193 14.6189 51.0194 15.529 51.7494 16.6951C52.4889 17.8517 52.8586 19.1931 52.8586 20.7195C52.8586 22.2363 52.4889 23.5777 51.7494 24.7438C51.0194 25.9099 50.0193 26.82 48.7489 27.4741C47.4881 28.1282 46.0708 28.4553 44.4971 28.4553ZM44.4971 25.4122C45.3882 25.4122 46.1845 25.2131 46.8861 24.8149C47.5971 24.4072 48.1564 23.8527 48.5641 23.1511C48.9717 22.4401 49.1756 21.6296 49.1756 20.7195C49.1756 19.7999 48.9717 18.9893 48.5641 18.2878C48.1564 17.5768 47.5971 17.0222 46.8861 16.624C46.1845 16.2258 45.3882 16.0268 44.4971 16.0268C43.6154 16.0268 42.8191 16.2258 42.1081 16.624C41.3971 17.0222 40.8377 17.5768 40.4301 18.2878C40.0224 18.9893 39.8186 19.7999 39.8186 20.7195C39.8186 21.6296 40.0224 22.4401 40.4301 23.1511C40.8377 23.8527 41.3971 24.4072 42.1081 24.8149C42.8191 25.2131 43.6154 25.4122 44.4971 25.4122ZM60.904 28.4553C59.681 28.4553 58.5908 28.2278 57.6333 27.7727C56.6853 27.3082 55.9126 26.6446 55.3154 25.7819L56.8796 23.4782C57.4389 24.2176 58.0599 24.7912 58.7425 25.1988C59.4345 25.6065 60.1503 25.8103 60.8897 25.8103C61.3448 25.8103 61.7477 25.7297 62.0985 25.5686C62.4492 25.3979 62.7289 25.1562 62.9375 24.8433C63.146 24.521 63.2503 24.1418 63.2503 23.7057C63.2503 23.2507 63.1318 22.8952 62.8948 22.6392C62.6578 22.3832 62.3023 22.151 61.8283 21.9424C61.3543 21.7338 60.757 21.4873 60.0365 21.2029C59.4298 20.947 58.8515 20.6626 58.3016 20.3497C57.7518 20.0369 57.2967 19.6435 56.9365 19.1694C56.5857 18.686 56.4103 18.0745 56.4103 17.335C56.4103 16.4913 56.6426 15.7424 57.1071 15.0882C57.5811 14.4341 58.2258 13.9222 59.0411 13.5524C59.8659 13.1827 60.8044 12.9978 61.8567 12.9978C62.6151 12.9978 63.3783 13.1353 64.1462 13.4102C64.9141 13.6757 65.682 14.0644 66.4499 14.5763L65.17 16.8089C64.0609 15.8893 62.9659 15.4295 61.8852 15.4295C61.25 15.4295 60.7381 15.5812 60.3494 15.8846C59.9702 16.1879 59.7806 16.5766 59.7806 17.0506C59.7806 17.4393 59.9465 17.7711 60.2783 18.046C60.6101 18.321 61.0225 18.5627 61.5154 18.7713C62.0084 18.9798 62.5014 19.1789 62.9943 19.3685C63.7717 19.6529 64.4543 19.9563 65.0421 20.2786C65.6298 20.601 66.0896 21.0181 66.4214 21.53C66.7532 22.0419 66.9191 22.7245 66.9191 23.5777C66.9191 24.6016 66.6727 25.4785 66.1797 26.2085C65.6962 26.9385 65.0041 27.4978 64.1035 27.8865C63.2029 28.2657 62.1364 28.4553 60.904 28.4553ZM75.1487 28.4553C73.9257 28.4553 72.8355 28.2278 71.878 27.7727C70.93 27.3082 70.1574 26.6446 69.5601 25.7819L71.1243 23.4782C71.6837 24.2176 72.3046 24.7912 72.9872 25.1988C73.6793 25.6065 74.395 25.8103 75.1345 25.8103C75.5895 25.8103 75.9924 25.7297 76.3432 25.5686C76.694 25.3979 76.9736 25.1562 77.1822 24.8433C77.3908 24.521 77.495 24.1418 77.495 23.7057C77.495 23.2507 77.3765 22.8952 77.1395 22.6392C76.9025 22.3832 76.547 22.151 76.073 21.9424C75.599 21.7338 75.0017 21.4873 74.2813 21.2029C73.6745 20.947 73.0962 20.6626 72.5464 20.3497C71.9965 20.0369 71.5415 19.6435 71.1812 19.1694C70.8305 18.686 70.6551 18.0745 70.6551 17.335C70.6551 16.4913 70.8873 15.7424 71.3519 15.0882C71.8259 14.4341 72.4705 13.9222 73.2858 13.5524C74.1106 13.1827 75.0491 12.9978 76.1015 12.9978C76.8599 12.9978 77.623 13.1353 78.3909 13.4102C79.1588 13.6757 79.9267 14.0644 80.6946 14.5763L79.4148 16.8089C78.3056 15.8893 77.2106 15.4295 76.1299 15.4295C75.4947 15.4295 74.9828 15.5812 74.5941 15.8846C74.2149 16.1879 74.0253 16.5766 74.0253 17.0506C74.0253 17.4393 74.1912 17.7711 74.523 18.046C74.8548 18.321 75.2672 18.5627 75.7602 18.7713C76.2531 18.9798 76.7461 19.1789 77.2391 19.3685C78.0164 19.6529 78.699 19.9563 79.2868 20.2786C79.8746 20.601 80.3344 21.0181 80.6662 21.53C80.998 22.0419 81.1639 22.7245 81.1639 23.5777C81.1639 24.6016 80.9174 25.4785 80.4244 26.2085C79.9409 26.9385 79.2489 27.4978 78.3483 27.8865C77.4476 28.2657 76.3811 28.4553 75.1487 28.4553Z" fill="white"/>
<path d="M8.8308 27.531L8.48128 28.3095L8.48571 28.3114L8.8308 27.531ZM5.16197 24.9429L4.54023 25.5274L4.54543 25.5328L5.16197 24.9429ZM2.71608 21.0607L1.92133 21.3715L1.92308 21.3759L2.71608 21.0607ZM2.65919 11.6611L3.45947 11.9573L3.46009 11.9556L2.65919 11.6611ZM5.00554 7.76477L4.37365 7.19128L5.00554 7.76477ZM8.71704 5.09135L8.36812 4.31261L8.36623 4.31346L8.71704 5.09135ZM16.8653 4.4941L17.067 3.66494V3.66494L16.8653 4.4941ZM19.8373 5.58906L19.4495 6.34918L19.4526 6.35076L19.8373 5.58906ZM22.3685 7.30972L23.0926 7.76134L23.4716 7.15373L22.9389 6.67504L22.3685 7.30972ZM20.5768 10.1822L19.9734 10.7856L20.7326 11.5448L21.3008 10.6338L20.5768 10.1822ZM17.4483 8.17715L17.1314 8.96947L17.1367 8.97154L17.4483 8.17715ZM10.3524 8.10605L10.7095 8.88107L10.7095 8.88107L10.3524 8.10605ZM7.89226 9.98313L7.23735 9.43608L7.23671 9.43684L7.89226 9.98313ZM6.37069 12.7561L5.56114 12.4862L5.55969 12.4907L6.37069 12.7561ZM6.44179 19.7098L5.63801 19.9964L5.63881 19.9986L6.44179 19.7098ZM8.06291 22.5397L7.41549 23.0957L7.4226 23.1037L8.06291 22.5397ZM10.5088 24.3883L10.1462 25.1608L10.1527 25.1638L10.5088 24.3883ZM16.0405 24.6016L15.7594 23.7959L15.7594 23.7959L16.0405 24.6016ZM19.7662 21.4873L20.5235 21.8807H20.5235L19.7662 21.4873ZM20.335 18.558H21.1884V17.7046H20.335V18.558ZM13.2818 18.558H12.4284V19.4113H13.2818V18.558ZM13.2818 15.6428V14.7895H12.4284V15.6428H13.2818ZM24.1318 15.6428H24.9852V14.7895H24.1318V15.6428ZM23.2217 22.753L23.9838 23.137L23.2217 22.753ZM20.7616 25.8388L21.3043 26.4973L21.3049 26.4968L20.7616 25.8388ZM17.3061 27.7869L17.5867 28.5928L17.592 28.591L17.3061 27.7869ZM13.3529 27.602C11.8429 27.602 10.4539 27.3157 9.1759 26.7505L8.48571 28.3114C9.99484 28.9787 11.6206 29.3086 13.3529 29.3086V27.602ZM9.18032 26.7525C7.88668 26.1717 6.75449 25.3729 5.77851 24.3529L4.54543 25.5328C5.67404 26.7123 6.98775 27.6389 8.48129 28.3094L9.18032 26.7525ZM5.78368 24.3584C4.81769 23.3309 4.05903 22.1293 3.50908 20.7456L1.92308 21.3759C2.54867 22.95 3.4206 24.3365 4.54026 25.5274L5.78368 24.3584ZM3.51081 20.75C2.97405 19.3773 2.70197 17.8908 2.70197 16.2827H0.995305C0.995305 18.0875 1.30152 19.7864 1.92134 21.3715L3.51081 20.75ZM2.70197 16.2827C2.70197 14.7585 2.95563 13.3186 3.45947 11.9573L1.85892 11.3649C1.28201 12.9236 0.995305 14.5647 0.995305 16.2827H2.70197ZM3.46009 11.9556C3.96366 10.5863 4.68938 9.38287 5.63744 8.33825L4.37365 7.19128C3.27399 8.40295 2.43547 9.7971 1.8583 11.3666L3.46009 11.9556ZM5.63744 8.33825C6.57913 7.30065 7.71927 6.47742 9.06785 5.86924L8.36623 4.31346C6.81387 5.01355 5.47968 5.9726 4.37365 7.19128L5.63744 8.33825ZM9.06596 5.87009C10.402 5.27147 11.9208 4.96348 13.6373 4.96348V3.25682C11.7133 3.25682 9.95198 3.60296 8.36812 4.31261L9.06596 5.87009ZM13.6373 4.96348C14.6701 4.96348 15.6783 5.0836 16.6636 5.32325L17.067 3.66494C15.9476 3.39267 14.8039 3.25682 13.6373 3.25682V4.96348ZM16.6636 5.32325C17.6538 5.56413 18.5818 5.90648 19.4495 6.34918L20.2251 4.82894C19.2347 4.32362 18.1813 3.936 17.067 3.66494L16.6636 5.32325ZM19.4526 6.35076C20.3269 6.79232 21.1076 7.32383 21.7981 7.94439L22.9389 6.67504C22.1315 5.94941 21.2248 5.33383 20.222 4.82736L19.4526 6.35076ZM21.6445 6.8581L19.8527 9.7306L21.3008 10.6338L23.0926 7.76134L21.6445 6.8581ZM21.1802 9.57882C20.2361 8.63477 19.091 7.90496 17.7599 7.38277L17.1367 8.97154C18.2704 9.41633 19.211 10.0232 19.9734 10.7856L21.1802 9.57882ZM17.7652 7.38485C16.435 6.85278 15.0668 6.58437 13.6657 6.58437V8.29103C14.8432 8.29103 15.9967 8.51559 17.1314 8.96945L17.7652 7.38485ZM13.6657 6.58437C12.3209 6.58437 11.0914 6.82597 9.99526 7.33104L10.7095 8.88107C11.5473 8.49499 12.5267 8.29103 13.6657 8.29103V6.58437ZM9.99526 7.33104C8.91501 7.8288 7.99274 8.53173 7.23735 9.43608L8.54718 10.5302C9.13797 9.8229 9.85578 9.27444 10.7095 8.88107L9.99526 7.33104ZM7.23671 9.43684C6.50033 10.3205 5.94319 11.3401 5.56115 12.4862L7.18023 13.0259C7.49973 12.0674 7.95697 11.2384 8.54781 10.5294L7.23671 9.43684ZM5.55969 12.4907C5.18777 13.6271 5.00543 14.8409 5.00543 16.1263H6.71209C6.71209 15.0037 6.87104 13.9707 7.1817 13.0215L5.55969 12.4907ZM5.00543 16.1263C5.00543 17.5109 5.21279 18.8037 5.63801 19.9964L7.24557 19.4232C6.89342 18.4355 6.71209 17.3393 6.71209 16.1263H5.00543ZM5.63881 19.9986C6.0598 21.1692 6.65047 22.2048 7.41555 23.0956L8.71027 21.9837C8.09124 21.2629 7.60116 20.412 7.24477 19.421L5.63881 19.9986ZM7.4226 23.1037C8.19875 23.9848 9.10765 24.6733 10.1462 25.1608L10.8714 23.6158C10.0518 23.2311 9.33013 22.6872 8.70321 21.9756L7.4226 23.1037ZM10.1527 25.1638C11.1988 25.6441 12.3211 25.8815 13.5093 25.8815V24.1749C12.5549 24.1749 11.6769 23.9857 10.8649 23.6128L10.1527 25.1638ZM13.5093 25.8815C14.4762 25.8815 15.415 25.7236 16.3216 25.4073L15.7594 23.7959C15.0354 24.0484 14.2867 24.1749 13.5093 24.1749V25.8815ZM16.3216 25.4073C17.2287 25.0909 18.0478 24.6345 18.7729 24.0374L17.6879 22.7199C17.1237 23.1846 16.4829 23.5435 15.7594 23.7959L16.3216 25.4073ZM18.7729 24.0374C19.5049 23.4345 20.0904 22.7143 20.5235 21.8807L19.009 21.094C18.6836 21.7204 18.2453 22.261 17.6879 22.7199L18.7729 24.0374ZM20.5235 21.8807C20.9703 21.0206 21.1884 20.0784 21.1884 19.0699H19.4817C19.4817 19.8247 19.3205 20.4942 19.009 21.094L20.5235 21.8807ZM21.1884 19.0699V18.558H19.4817V19.0699H21.1884ZM20.335 17.7046H13.2818V19.4113H20.335V17.7046ZM14.1351 18.558V15.6428H12.4284V18.558H14.1351ZM13.2818 16.4961H24.1318V14.7895H13.2818V16.4961ZM23.2785 15.6428V18.6717H24.9852V15.6428H23.2785ZM23.2785 18.6717C23.2785 20.072 22.9993 21.2982 22.4597 22.3689L23.9838 23.137C24.6577 21.7997 24.9852 20.3051 24.9852 18.6717H23.2785ZM22.4597 22.3689C21.9058 23.4681 21.16 24.4032 20.2183 25.1807L21.3049 26.4968C22.4299 25.5679 23.3242 24.4458 23.9838 23.137L22.4597 22.3689ZM20.2189 25.1802C19.2734 25.9594 18.2089 26.5603 17.0202 26.9829L17.592 28.591C18.9629 28.1035 20.2021 27.4056 21.3043 26.4973L20.2189 25.1802ZM17.0255 26.9811C15.8359 27.3952 14.613 27.602 13.3529 27.602V29.3086C14.804 29.3086 16.2166 29.0698 17.5867 28.5928L17.0255 26.9811ZM28.4599 28.0002H27.6066V28.8536H28.4599V28.0002ZM28.4599 3.54134V2.68801H27.6066V3.54134H28.4599ZM32.0008 3.54134H32.8541V2.68801H32.0008V3.54134ZM32.0008 28.0002V28.8536H32.8541V28.0002H32.0008ZM29.3133 28.0002V3.54134H27.6066V28.0002H29.3133ZM28.4599 4.39467H32.0008V2.68801H28.4599V4.39467ZM31.1474 3.54134V28.0002H32.8541V3.54134H31.1474ZM32.0008 27.1469H28.4599V28.8536H32.0008V27.1469ZM40.231 27.4741L39.838 28.2316L39.8403 28.2328L40.231 27.4741ZM37.2305 24.7438L36.5099 25.2008L37.2305 24.7438ZM37.2305 16.6951L37.9495 17.1548L37.9512 17.1521L37.2305 16.6951ZM40.231 13.9648L39.838 13.2073L40.231 13.9648ZM48.7489 13.9648L48.356 14.7223L48.3583 14.7235L48.7489 13.9648ZM51.7494 16.6951L51.0261 17.1479L51.0305 17.1548L51.7494 16.6951ZM51.7494 24.7438L51.0288 24.2868L51.0261 24.291L51.7494 24.7438ZM48.7489 27.4741L48.3583 26.7154L48.356 26.7166L48.7489 27.4741ZM46.8861 24.8149L47.3073 25.557L47.3105 25.5552L46.8861 24.8149ZM48.5641 23.1511L49.3019 23.5799L49.3044 23.5756L48.5641 23.1511ZM48.5641 18.2878L47.8238 18.7122L47.8263 18.7165L48.5641 18.2878ZM46.8861 16.624L46.4649 17.3662L46.4691 17.3685L46.8861 16.624ZM42.1081 16.624L42.525 17.3685L42.1081 16.624ZM40.4301 18.2878L41.1679 18.7165L41.1704 18.7122L40.4301 18.2878ZM40.4301 23.1511L39.6898 23.5756L39.6923 23.5799L40.4301 23.1511ZM42.1081 24.8149L41.6836 25.5552L41.6911 25.5594L42.1081 24.8149ZM44.4971 27.602C43.0452 27.602 41.7593 27.3012 40.6216 26.7154L39.8403 28.2328C41.2434 28.9552 42.8015 29.3086 44.4971 29.3086V27.602ZM40.624 26.7166C39.4929 26.1299 38.6075 25.3217 37.9512 24.2868L36.5099 25.2008C37.3325 26.498 38.4473 27.5101 39.838 28.2316L40.624 26.7166ZM37.9512 24.2868C37.3068 23.2707 36.9747 22.091 36.9747 20.7195H35.268C35.268 22.3816 35.6753 23.8847 36.5099 25.2008L37.9512 24.2868ZM36.9747 20.7195C36.9747 19.3372 37.3074 18.159 37.9495 17.1548L36.5116 16.2355C35.6747 17.5443 35.268 19.0491 35.268 20.7195H36.9747ZM37.9512 17.1521C38.6075 16.1172 39.4929 15.3091 40.624 14.7223L39.838 13.2073C38.4473 13.9288 37.3325 14.9409 36.5099 16.2381L37.9512 17.1521ZM40.624 14.7223C41.75 14.1381 43.0348 13.8369 44.4971 13.8369V12.1303C42.793 12.1303 41.2337 12.4833 39.838 13.2073L40.624 14.7223ZM44.4971 13.8369C45.949 13.8369 47.2292 14.1377 48.356 14.7223L49.1419 13.2073C47.747 12.4837 46.1926 12.1303 44.4971 12.1303V13.8369ZM48.3583 14.7235C49.4978 15.3102 50.3808 16.117 51.0261 17.1479L52.4727 16.2423C51.6581 14.9411 50.5408 13.9277 49.1396 13.2062L48.3583 14.7235ZM51.0305 17.1548C51.6726 18.159 52.0053 19.3372 52.0053 20.7195H53.7119C53.7119 19.0491 53.3052 17.5443 52.4684 16.2355L51.0305 17.1548ZM52.0053 20.7195C52.0053 22.091 51.6731 23.2707 51.0288 24.2868L52.4701 25.2008C53.3046 23.8847 53.7119 22.3816 53.7119 20.7195H52.0053ZM51.0261 24.291C50.3808 25.3219 49.4978 26.1287 48.3583 26.7154L49.1396 28.2328C50.5408 27.5112 51.6581 26.4978 52.4727 25.1966L51.0261 24.291ZM48.356 26.7166C47.2292 27.3012 45.949 27.602 44.4971 27.602V29.3086C46.1926 29.3086 47.747 28.9552 49.1419 28.2316L48.356 26.7166ZM44.4971 26.2655C45.52 26.2655 46.4642 26.0355 47.3073 25.557L46.4649 24.0728C45.9049 24.3906 45.2564 24.5588 44.4971 24.5588V26.2655ZM47.3105 25.5552C48.1502 25.0738 48.8182 24.4123 49.3019 23.5799L47.8263 22.7224C47.4947 23.293 47.044 23.7407 46.4617 24.0746L47.3105 25.5552ZM49.3044 23.5756C49.794 22.7215 50.0289 21.7616 50.0289 20.7195H48.3222C48.3222 21.4975 48.1494 22.1587 47.8238 22.7267L49.3044 23.5756ZM50.0289 20.7195C50.0289 19.6697 49.7949 18.7074 49.3019 17.8591L47.8263 18.7165C48.1486 19.2712 48.3222 19.93 48.3222 20.7195H50.0289ZM49.3044 17.8633C48.8204 17.0191 48.1496 16.3536 47.303 15.8795L46.4691 17.3685C47.0446 17.6908 47.4925 18.1344 47.8238 18.7122L49.3044 17.8633ZM47.3073 15.8819C46.4642 15.4034 45.52 15.1734 44.4971 15.1734V16.8801C45.2564 16.8801 45.9049 17.0483 46.4649 17.3661L47.3073 15.8819ZM44.4971 15.1734C43.4817 15.1734 42.5398 15.4042 41.6911 15.8795L42.525 17.3685C43.0983 17.0475 43.7491 16.8801 44.4971 16.8801V15.1734ZM41.6911 15.8795C40.8445 16.3536 40.1738 17.0191 39.6898 17.8633L41.1704 18.7122C41.5017 18.1344 41.9496 17.6908 42.525 17.3685L41.6911 15.8795ZM39.6923 17.8591C39.1993 18.7074 38.9653 19.6697 38.9653 20.7195H40.6719C40.6719 19.93 40.8456 19.2712 41.1679 18.7165L39.6923 17.8591ZM38.9653 20.7195C38.9653 21.7616 39.2001 22.7215 39.6898 23.5756L41.1704 22.7267C40.8447 22.1587 40.6719 21.4975 40.6719 20.7195H38.9653ZM39.6923 23.5799C40.176 24.4123 40.844 25.0738 41.6836 25.5552L42.5325 24.0746C41.9501 23.7407 41.4994 23.293 41.1679 22.7224L39.6923 23.5799ZM41.6911 25.5594C42.5398 26.0347 43.4817 26.2655 44.4971 26.2655V24.5588C43.7491 24.5588 43.0983 24.3914 42.525 24.0704L41.6911 25.5594ZM57.6333 27.7727L57.2578 28.5391L57.267 28.5434L57.6333 27.7727ZM55.3154 25.7819L54.6094 25.3025L54.2807 25.7866L54.6138 26.2676L55.3154 25.7819ZM56.8796 23.4782L57.5602 22.9634L56.8422 22.0142L56.1736 22.9988L56.8796 23.4782ZM58.7425 25.1988L58.3049 25.9315L58.3094 25.9341L58.7425 25.1988ZM62.0985 25.5686L62.4547 26.344L62.4633 26.34L62.4718 26.3359L62.0985 25.5686ZM62.9375 24.8433L63.6475 25.3167L63.6539 25.3069L62.9375 24.8433ZM62.8948 22.6392L62.2687 23.219V23.219L62.8948 22.6392ZM61.8283 21.9424L62.1719 21.1613L61.8283 21.9424ZM60.0365 21.2029L59.7048 21.9892L59.714 21.993L59.7232 21.9967L60.0365 21.2029ZM58.3016 20.3497L58.7236 19.608H58.7236L58.3016 20.3497ZM56.9365 19.1694L56.2458 19.6705L56.2514 19.6782L56.2571 19.6858L56.9365 19.1694ZM57.1071 15.0882L56.4161 14.5875L56.4114 14.5941L57.1071 15.0882ZM59.0411 13.5524L58.692 12.7737L58.6887 12.7753L59.0411 13.5524ZM64.1462 13.4102L63.8585 14.2137L63.8674 14.2167L64.1462 13.4102ZM66.4499 14.5763L67.1902 15.0007L67.5869 14.3087L66.9232 13.8663L66.4499 14.5763ZM65.17 16.8089L64.6254 17.4658L65.4061 18.113L65.9104 17.2333L65.17 16.8089ZM60.3494 15.8846L59.8243 15.2118L59.8163 15.2182L60.3494 15.8846ZM60.2783 18.046L60.8227 17.389V17.389L60.2783 18.046ZM61.5154 18.7713L61.8479 17.9854V17.9854L61.5154 18.7713ZM62.9943 19.3685L62.688 20.1651L62.7012 20.1699L62.9943 19.3685ZM65.0421 20.2786L65.4524 19.5304L65.0421 20.2786ZM66.4214 21.53L65.7054 21.9941L66.4214 21.53ZM66.1797 26.2085L65.4725 25.7309L65.4683 25.7373L66.1797 26.2085ZM64.1035 27.8865L64.4347 28.673L64.4417 28.67L64.1035 27.8865ZM60.904 27.602C59.7883 27.602 58.8263 27.3949 57.9996 27.002L57.267 28.5434C58.3553 29.0606 59.5737 29.3086 60.904 29.3086V27.602ZM58.0088 27.0064C57.1908 26.6056 56.5307 26.0382 56.017 25.2962L54.6138 26.2676C55.2945 27.2509 56.1798 28.0108 57.2578 28.539L58.0088 27.0064ZM56.0214 26.2612L57.5856 23.9576L56.1736 22.9988L54.6094 25.3025L56.0214 26.2612ZM56.199 23.993C56.8138 24.8057 57.5138 25.459 58.3049 25.9315L59.18 24.4662C58.606 24.1234 58.0641 23.6296 57.5602 22.9634L56.199 23.993ZM58.3094 25.9341C59.121 26.4122 59.985 26.6637 60.8897 26.6637V24.957C60.3156 24.957 59.7481 24.8008 59.1756 24.4636L58.3094 25.9341ZM60.8897 26.6637C61.446 26.6637 61.974 26.5649 62.4547 26.344L61.7422 24.7932C61.5214 24.8946 61.2436 24.957 60.8897 24.957V26.6637ZM62.4718 26.3359C62.9536 26.1015 63.3516 25.7606 63.6475 25.3167L62.2274 24.37C62.1062 24.5518 61.9449 24.6943 61.7252 24.8012L62.4718 26.3359ZM63.6539 25.3069C63.9635 24.8284 64.1036 24.2833 64.1036 23.7057H62.397C62.397 24.0003 62.3285 24.2137 62.221 24.3798L63.6539 25.3069ZM64.1036 23.7057C64.1036 23.103 63.9441 22.5164 63.5209 22.0594L62.2687 23.219C62.3195 23.2739 62.397 23.3983 62.397 23.7057H64.1036ZM63.5209 22.0594C63.1757 21.6866 62.7057 21.3962 62.1719 21.1613L61.4846 22.7235C61.8989 22.9058 62.1399 23.0798 62.2687 23.219L63.5209 22.0594ZM62.1719 21.1613C61.6843 20.9468 61.0761 20.6959 60.3498 20.4092L59.7232 21.9967C60.438 22.2788 61.0242 22.5209 61.4846 22.7235L62.1719 21.1613ZM60.3682 20.4167C59.7912 20.1733 59.2431 19.9036 58.7236 19.608L57.8797 21.0914C58.4599 21.4215 59.0684 21.7207 59.7048 21.9892L60.3682 20.4167ZM58.7236 19.608C58.2676 19.3485 57.9021 19.0297 57.6159 18.6531L56.2571 19.6858C56.6914 20.2572 57.236 20.7252 57.8797 21.0914L58.7236 19.608ZM57.6272 18.6683C57.4051 18.3622 57.2637 17.9379 57.2637 17.335H55.557C55.557 18.211 55.7664 19.0097 56.2458 19.6705L57.6272 18.6683ZM57.2637 17.335C57.2637 16.6586 57.4464 16.0844 57.8029 15.5823L56.4114 14.5941C55.8389 15.4003 55.557 16.3239 55.557 17.335H57.2637ZM57.7981 15.5889C58.176 15.0674 58.6982 14.6449 59.3935 14.3296L58.6887 12.7753C57.7534 13.1994 56.9863 13.8008 56.4162 14.5875L57.7981 15.5889ZM59.3902 14.3311C60.0886 14.018 60.9051 13.8512 61.8567 13.8512V12.1445C60.7037 12.1445 59.6432 12.3474 58.692 12.7738L59.3902 14.3311ZM61.8567 13.8512C62.5099 13.8512 63.176 13.9692 63.8585 14.2136L64.4338 12.6068C63.5806 12.3014 62.7203 12.1445 61.8567 12.1445V13.8512ZM63.8674 14.2167C64.558 14.4555 65.2611 14.8093 65.9765 15.2863L66.9232 13.8663C66.1029 13.3194 65.2701 12.8959 64.425 12.6037L63.8674 14.2167ZM65.7096 14.1519L64.4297 16.3845L65.9104 17.2333L67.1902 15.0007L65.7096 14.1519ZM65.7147 16.1519C64.5037 15.148 63.2225 14.5762 61.8852 14.5762V16.2828C62.7093 16.2828 63.618 16.6306 64.6254 17.4658L65.7147 16.1519ZM61.8852 14.5762C61.1151 14.5762 60.4015 14.7614 59.8243 15.2119L60.8744 16.5572C61.0746 16.401 61.3849 16.2828 61.8852 16.2828V14.5762ZM59.8163 15.2182C59.2404 15.6789 58.9272 16.3101 58.9272 17.0506H60.6339C60.6339 16.8431 60.6999 16.6969 60.8824 16.5509L59.8163 15.2182ZM58.9272 17.0506C58.9272 17.723 59.2304 18.286 59.7338 18.7031L60.8227 17.389C60.6625 17.2562 60.6339 17.1556 60.6339 17.0506H58.9272ZM59.7338 18.7031C60.1429 19.0421 60.6311 19.3237 61.1829 19.5572L61.8479 17.9854C61.4138 17.8017 61.0772 17.5998 60.8227 17.389L59.7338 18.7031ZM61.1829 19.5572C61.6845 19.7693 62.1861 19.972 62.688 20.165L63.3007 18.5721C62.8166 18.3859 62.3323 18.1903 61.8479 17.9854L61.1829 19.5572ZM62.7012 20.1699C63.4472 20.4428 64.0892 20.7293 64.6318 21.0268L65.4524 19.5304C64.8194 19.1833 64.0963 18.863 63.2875 18.5671L62.7012 20.1699ZM64.6318 21.0268C65.1082 21.2881 65.4578 21.6122 65.7054 21.9941L67.1375 21.0659C66.7215 20.424 66.1515 19.9138 65.4524 19.5304L64.6318 21.0268ZM65.7054 21.9941C65.9185 22.323 66.0658 22.8262 66.0658 23.5777H67.7725C67.7725 22.6229 67.588 21.7608 67.1375 21.0659L65.7054 21.9941ZM66.0658 23.5777C66.0658 24.4597 65.8555 25.1638 65.4725 25.7309L66.8869 26.6861C67.4898 25.7932 67.7725 24.7434 67.7725 23.5777H66.0658ZM65.4683 25.7373C65.087 26.3129 64.5328 26.7718 63.7654 27.103L64.4417 28.67C65.4755 28.2238 66.3054 27.564 66.8911 26.6797L65.4683 25.7373ZM63.7724 27.1C63.0001 27.4252 62.0513 27.602 60.904 27.602V29.3086C62.2215 29.3086 63.4057 29.1062 64.4347 28.6729L63.7724 27.1ZM71.878 27.7727L71.5025 28.5391L71.5117 28.5434L71.878 27.7727ZM69.5601 25.7819L68.8541 25.3025L68.5255 25.7866L68.8585 26.2676L69.5601 25.7819ZM71.1243 23.4782L71.8049 22.9634L71.0869 22.0142L70.4184 22.9988L71.1243 23.4782ZM72.9872 25.1988L72.5497 25.9315L72.5541 25.9341L72.9872 25.1988ZM76.3432 25.5686L76.6995 26.344L76.708 26.34L76.7165 26.3359L76.3432 25.5686ZM77.1822 24.8433L77.8923 25.3167L77.8986 25.3069L77.1822 24.8433ZM77.1395 22.6392L76.5134 23.219V23.219L77.1395 22.6392ZM76.073 21.9424L76.4167 21.1613L76.073 21.9424ZM74.2812 21.2029L73.9496 21.9892L73.9587 21.993L73.9679 21.9967L74.2812 21.2029ZM72.5464 20.3497L72.9684 19.608L72.5464 20.3497ZM71.1812 19.1694L70.4905 19.6705L70.4961 19.6782L70.5018 19.6858L71.1812 19.1694ZM71.3519 15.0882L70.6609 14.5875L70.6561 14.5941L71.3519 15.0882ZM73.2858 13.5524L72.9368 12.7737L72.9334 12.7753L73.2858 13.5524ZM78.3909 13.4102L78.1033 14.2137L78.1121 14.2167L78.3909 13.4102ZM80.6946 14.5763L81.4349 15.0007L81.8316 14.3087L81.1679 13.8663L80.6946 14.5763ZM79.4148 16.8089L78.8701 17.4658L79.6508 18.113L80.1551 17.2333L79.4148 16.8089ZM74.5941 15.8846L74.069 15.2118L74.061 15.2182L74.5941 15.8846ZM74.523 18.046L75.0674 17.389V17.389L74.523 18.046ZM75.7602 18.7713L76.0927 17.9854L76.0927 17.9854L75.7602 18.7713ZM77.2391 19.3685L76.9327 20.1651L76.9459 20.1699L77.2391 19.3685ZM79.2868 20.2786L79.6971 19.5304L79.2868 20.2786ZM80.6662 21.53L79.9501 21.9941L80.6662 21.53ZM80.4244 26.2085L79.7172 25.7309L79.713 25.7373L80.4244 26.2085ZM78.3483 27.8865L78.6794 28.673L78.6864 28.67L78.3483 27.8865ZM75.1487 27.602C74.033 27.602 73.071 27.3949 72.2443 27.002L71.5117 28.5434C72.6 29.0606 73.8185 29.3086 75.1487 29.3086V27.602ZM72.2535 27.0064C71.4355 26.6056 70.7755 26.0382 70.2617 25.2962L68.8585 26.2676C69.5393 27.2509 70.4245 28.0108 71.5025 28.539L72.2535 27.0064ZM70.2661 26.2612L71.8303 23.9576L70.4184 22.9988L68.8541 25.3025L70.2661 26.2612ZM70.4438 23.993C71.0585 24.8057 71.7585 25.459 72.5497 25.9315L73.4247 24.4662C72.8507 24.1234 72.3089 23.6296 71.8049 22.9634L70.4438 23.993ZM72.5541 25.9341C73.3657 26.4122 74.2297 26.6637 75.1345 26.6637V24.957C74.5603 24.957 73.9928 24.8008 73.4203 24.4636L72.5541 25.9341ZM75.1345 26.6637C75.6907 26.6637 76.2187 26.5649 76.6995 26.344L75.9869 24.7932C75.7661 24.8946 75.4883 24.957 75.1345 24.957V26.6637ZM76.7165 26.3359C77.1983 26.1015 77.5963 25.7606 77.8922 25.3167L76.4722 24.37C76.351 24.5518 76.1896 24.6943 75.9699 24.8012L76.7165 26.3359ZM77.8986 25.3069C78.2083 24.8284 78.3484 24.2833 78.3484 23.7057H76.6417C76.6417 24.0003 76.5732 24.2137 76.4658 24.3798L77.8986 25.3069ZM78.3484 23.7057C78.3484 23.103 78.1888 22.5164 77.7657 22.0594L76.5134 23.219C76.5642 23.2739 76.6417 23.3983 76.6417 23.7057H78.3484ZM77.7657 22.0594C77.4205 21.6866 76.9504 21.3962 76.4167 21.1613L75.7293 22.7235C76.1436 22.9058 76.3846 23.0798 76.5134 23.219L77.7657 22.0594ZM76.4167 21.1613C75.929 20.9468 75.3208 20.6959 74.5946 20.4092L73.9679 21.9967C74.6827 22.2788 75.269 22.5209 75.7293 22.7235L76.4167 21.1613ZM74.6129 20.4167C74.0359 20.1733 73.4879 19.9036 72.9684 19.608L72.1244 21.0914C72.7046 21.4215 73.3131 21.7207 73.9496 21.9892L74.6129 20.4167ZM72.9684 19.608C72.5123 19.3485 72.1469 19.0297 71.8606 18.6531L70.5018 19.6858C70.9361 20.2572 71.4808 20.7252 72.1244 21.0914L72.9684 19.608ZM71.8719 18.6683C71.6498 18.3622 71.5084 17.9379 71.5084 17.335H69.8017C69.8017 18.211 70.0111 19.0097 70.4905 19.6705L71.8719 18.6683ZM71.5084 17.335C71.5084 16.6586 71.6911 16.0844 72.0476 15.5823L70.6561 14.5941C70.0836 15.4003 69.8017 16.3239 69.8017 17.335H71.5084ZM72.0429 15.5889C72.4208 15.0674 72.943 14.6449 73.6383 14.3296L72.9334 12.7753C71.9981 13.1994 71.231 13.8008 70.6609 14.5875L72.0429 15.5889ZM73.6349 14.3311C74.3333 14.018 75.1499 13.8512 76.1014 13.8512V12.1445C74.9484 12.1445 73.8879 12.3474 72.9368 12.7738L73.6349 14.3311ZM76.1014 13.8512C76.7547 13.8512 77.4207 13.9692 78.1033 14.2136L78.6786 12.6068C77.8253 12.3014 76.9651 12.1445 76.1014 12.1445V13.8512ZM78.1121 14.2167C78.8028 14.4555 79.5058 14.8093 80.2213 15.2863L81.1679 13.8663C80.3476 13.3194 79.5149 12.8959 78.6697 12.6037L78.1121 14.2167ZM79.9543 14.1519L78.6745 16.3845L80.1551 17.2333L81.4349 15.0007L79.9543 14.1519ZM79.9594 16.1519C78.7484 15.148 77.4673 14.5762 76.1299 14.5762V16.2828C76.954 16.2828 77.8628 16.6306 78.8701 17.4658L79.9594 16.1519ZM76.1299 14.5762C75.3598 14.5762 74.6462 14.7614 74.0691 15.2119L75.1191 16.5572C75.3194 16.401 75.6296 16.2828 76.1299 16.2828V14.5762ZM74.061 15.2182C73.4852 15.6789 73.172 16.3101 73.172 17.0506H74.8786C74.8786 16.8431 74.9446 16.6969 75.1272 16.5509L74.061 15.2182ZM73.172 17.0506C73.172 17.723 73.4751 18.286 73.9786 18.7031L75.0674 17.389C74.9072 17.2562 74.8786 17.1556 74.8786 17.0506H73.172ZM73.9786 18.7031C74.3876 19.0421 74.8759 19.3237 75.4277 19.5572L76.0927 17.9854C75.6585 17.8017 75.322 17.5998 75.0674 17.389L73.9786 18.7031ZM75.4277 19.5572C75.9292 19.7693 76.4309 19.972 76.9327 20.165L77.5454 18.5721C77.0613 18.3859 76.5771 18.1903 76.0927 17.9854L75.4277 19.5572ZM76.9459 20.1699C77.6919 20.4428 78.3339 20.7293 78.8765 21.0268L79.6971 19.5304C79.0642 19.1833 78.341 18.863 77.5323 18.5671L76.9459 20.1699ZM78.8765 21.0268C79.3529 21.2881 79.7025 21.6122 79.9501 21.9941L81.3822 21.0659C80.9662 20.424 80.3962 19.9138 79.6971 19.5304L78.8765 21.0268ZM79.9501 21.9941C80.1633 22.323 80.3105 22.8262 80.3105 23.5777H82.0172C82.0172 22.6229 81.8327 21.7608 81.3822 21.0659L79.9501 21.9941ZM80.3105 23.5777C80.3105 24.4597 80.1002 25.1638 79.7172 25.7309L81.1316 26.6861C81.7346 25.7932 82.0172 24.7434 82.0172 23.5777H80.3105ZM79.713 25.7373C79.3317 26.3129 78.7775 26.7718 78.0101 27.103L78.6864 28.67C79.7202 28.2238 80.5501 27.564 81.1359 26.6797L79.713 25.7373ZM78.0171 27.1C77.2448 27.4252 76.296 27.602 75.1487 27.602V29.3086C76.4662 29.3086 77.6505 29.1062 78.6794 28.6729L78.0171 27.1ZM95.5835 27.6874L95.2204 28.4597L95.2284 28.4633L95.5835 27.6874ZM92.9527 25.4833L92.2416 25.955L92.2471 25.9631L92.9527 25.4833ZM93.4078 18.0745L92.75 17.5309L92.7473 17.5341L93.4078 18.0745ZM97.6596 15.1309L97.9982 15.9142L99.0815 15.446L98.2974 14.564L97.6596 15.1309ZM96.0243 13.0832L95.316 13.5591L95.3195 13.5642L96.0243 13.0832ZM95.1427 11.3625L94.3277 11.6154L94.3303 11.6239L94.3331 11.6323L95.1427 11.3625ZM95.7399 6.68402L95.0386 6.19787L95.0349 6.20331L95.7399 6.68402ZM98.0578 4.76428L97.7036 3.98795L97.7007 3.98927L98.0578 4.76428ZM104.045 4.5652L103.729 5.35824L103.741 5.36263L104.045 4.5652ZM106.035 5.83081L105.427 6.42884L105.432 6.43423L105.437 6.43952L106.035 5.83081ZM107.258 7.63678L106.468 7.95945L106.47 7.96339L107.258 7.63678ZM106.448 12.9552L107.092 13.5148L107.095 13.5116L106.448 12.9552ZM102.893 15.5717L102.5 14.8141L101.501 15.3317L102.269 16.154L102.893 15.5717ZM107.671 20.691L107.047 21.2733L107.599 21.8653L108.22 21.3444L107.671 20.691ZM108.453 19.9373L107.84 19.3435L107.83 19.3537L108.453 19.9373ZM109.335 18.9988L108.705 18.423L108.704 18.4239L109.335 18.9988ZM110.159 18.0603L109.507 17.51L109.505 17.5119L110.159 18.0603ZM110.771 17.335L111.351 16.709L110.694 16.101L110.118 16.7854L110.771 17.335ZM113.089 19.4823L113.76 20.009L114.245 19.3905L113.669 18.8563L113.089 19.4823ZM111.524 21.402L112.173 21.9566L112.177 21.952L111.524 21.402ZM110.003 23.0658L109.399 22.4624L108.815 23.0464L109.38 23.6491L110.003 23.0658ZM114.624 28.0002V28.8536H116.593L115.247 27.4169L114.624 28.0002ZM109.96 28.0002L109.336 28.5818L109.589 28.8536H109.96V28.0002ZM107.258 25.0993L107.883 24.5177L107.296 23.8872L106.671 24.4805L107.258 25.0993ZM103.575 27.5879L103.918 28.3693L103.921 28.3681L103.575 27.5879ZM102.423 24.3314L102.788 25.1031L102.791 25.1014L102.423 24.3314ZM104.841 22.5823L105.444 23.1857L106.037 22.5934L105.455 21.9903L104.841 22.5823ZM99.5936 17.1359L100.208 16.5439L99.8001 16.1204L99.2591 16.3509L99.5936 17.1359ZM96.6358 23.3929L95.9236 23.8631L95.9299 23.8723L96.6358 23.3929ZM98.0009 24.5447L97.64 25.3181L97.6508 25.3229L98.0009 24.5447ZM100.973 13.5098L100.38 14.1233L100.824 14.5523L101.37 14.2651L100.973 13.5098ZM102.85 12.3579L102.348 11.6678L102.342 11.6722L102.85 12.3579ZM104.016 11.135L103.287 10.6912L103.28 10.703L104.016 11.135ZM104.016 8.14872L103.28 8.58073L103.287 8.5924L104.016 8.14872ZM102.964 7.13907L102.544 7.88195L102.553 7.88733L102.563 7.89246L102.964 7.13907ZM100.006 7.13907L100.42 7.88502L100.427 7.88153L100.433 7.87794L100.006 7.13907ZM98.9964 8.13449L99.7352 8.5614L98.9964 8.13449ZM98.8541 10.7937L98.0592 11.1039L98.0625 11.1123L98.0659 11.1205L98.8541 10.7937ZM99.6078 12.0309L100.28 11.5049L99.6078 12.0309ZM99.3945 27.602C98.076 27.602 96.9297 27.365 95.9386 26.9115L95.2284 28.4633C96.4746 29.0336 97.869 29.3086 99.3945 29.3086V27.602ZM95.9465 26.9151C94.9657 26.4541 94.2111 25.8163 93.6584 25.0034L92.2471 25.9631C92.9837 27.0463 93.9828 27.8779 95.2205 28.4597L95.9465 26.9151ZM93.6638 25.0115C93.1332 24.2116 92.8533 23.2524 92.8533 22.0988H91.1466C91.1466 23.5428 91.5019 24.8399 92.2416 25.955L93.6638 25.0115ZM92.8533 22.0988C92.8533 20.7523 93.2592 19.6036 94.0682 18.6148L92.7473 17.5341C91.6792 18.8396 91.1466 20.3738 91.1466 22.0988H92.8533ZM94.0655 18.6181C94.9012 17.6069 96.1908 16.6952 97.9982 15.9142L97.3211 14.3476C95.3553 15.1971 93.8104 16.2478 92.75 17.5309L94.0655 18.6181ZM98.2974 14.564C97.6299 13.8129 97.1098 13.1598 96.7291 12.6021L95.3195 13.5642C95.7542 14.201 96.3243 14.913 97.0219 15.6978L98.2974 14.564ZM96.7326 12.6073C96.3564 12.0473 96.1023 11.5429 95.9522 11.0927L94.3331 11.6323C94.5433 12.2629 94.8769 12.9056 95.316 13.5591L96.7326 12.6073ZM95.9576 11.1096C95.8121 10.6406 95.74 10.1665 95.74 9.68451H94.0334C94.0334 10.3401 94.1319 10.9847 94.3277 11.6154L95.9576 11.1096ZM95.74 9.68451C95.74 8.66261 95.9871 7.83628 96.445 7.16474L95.0349 6.20331C94.3551 7.20028 94.0334 8.37428 94.0334 9.68451H95.74ZM96.4412 7.17016C96.9283 6.46745 97.5794 5.92431 98.4149 5.5393L97.7007 3.98927C96.6023 4.4954 95.7081 5.23208 95.0386 6.19788L96.4412 7.17016ZM98.4121 5.54061C99.2653 5.15125 100.228 4.94926 101.314 4.94926V3.2426C100.011 3.2426 98.8032 3.48618 97.7036 3.98796L98.4121 5.54061ZM101.314 4.94926C102.263 4.94926 103.062 5.09293 103.729 5.35816L104.36 3.77224C103.453 3.41178 102.432 3.2426 101.314 3.2426V4.94926ZM103.741 5.36263C104.437 5.62774 104.992 5.98647 105.427 6.42884L106.644 5.23277C106.017 4.5944 105.245 4.10939 104.348 3.76777L103.741 5.36263ZM105.437 6.43952C105.899 6.89258 106.239 7.39826 106.468 7.95945L108.048 7.31412C107.728 6.52912 107.253 5.83082 106.633 5.22209L105.437 6.43952ZM106.47 7.96339C106.702 8.52455 106.817 9.10096 106.817 9.69873H108.524C108.524 8.87446 108.364 8.07625 108.047 7.31018L106.47 7.96339ZM106.817 9.69873C106.817 10.7125 106.486 11.6017 105.801 12.3988L107.095 13.5116C108.04 12.4126 108.524 11.1308 108.524 9.69873H106.817ZM105.804 12.3956C105.081 13.2269 103.995 14.0391 102.5 14.8141L103.285 16.3293C104.9 15.4927 106.184 14.5605 107.092 13.5148L105.804 12.3956ZM102.269 16.154L107.047 21.2733L108.295 20.1088L103.517 14.9895L102.269 16.154ZM108.22 21.3444C108.49 21.1176 108.775 20.8412 109.075 20.521L107.83 19.3537C107.562 19.6402 107.326 19.8662 107.122 20.0376L108.22 21.3444ZM109.066 20.5311C109.366 20.2213 109.666 19.9022 109.965 19.5737L108.704 18.4239C108.416 18.74 108.128 19.0466 107.84 19.3436L109.066 20.5311ZM109.964 19.5746C110.275 19.2353 110.558 18.9132 110.813 18.6086L109.505 17.5119C109.268 17.795 109.001 18.0987 108.705 18.423L109.964 19.5746ZM110.811 18.6105C111.068 18.3071 111.272 18.0651 111.423 17.8847L110.118 16.7854C109.967 16.9652 109.763 17.2067 109.507 17.51L110.811 18.6105ZM110.191 17.961L112.509 20.1083L113.669 18.8563L111.351 16.709L110.191 17.961ZM112.417 18.9555C111.941 19.5631 111.426 20.1953 110.872 20.8521L112.177 21.952C112.742 21.2815 113.27 20.6339 113.76 20.009L112.417 18.9555ZM110.876 20.8475C110.326 21.49 109.835 22.0272 109.399 22.4624L110.606 23.6692C111.081 23.1943 111.604 22.6224 112.173 21.9566L110.876 20.8475ZM109.38 23.6491L114.002 28.5836L115.247 27.4169L110.626 22.4825L109.38 23.6491ZM114.624 27.1469H109.96V28.8536H114.624V27.1469ZM110.585 27.4187L107.883 24.5177L106.634 25.6809L109.336 28.5818L110.585 27.4187ZM106.671 24.4805C105.608 25.4893 104.461 26.2622 103.23 26.8076L103.921 28.3681C105.344 27.738 106.652 26.8518 107.846 25.7181L106.671 24.4805ZM103.232 26.8065C102.025 27.3363 100.748 27.602 99.3945 27.602V29.3086C100.979 29.3086 102.49 28.996 103.918 28.3693L103.232 26.8065ZM99.878 25.782C100.869 25.782 101.841 25.5499 102.788 25.1031L102.059 23.5597C101.319 23.9092 100.594 24.0753 99.878 24.0753V25.782ZM102.791 25.1014C103.743 24.6468 104.626 24.0035 105.444 23.1857L104.237 21.9789C103.538 22.6779 102.811 23.2007 102.056 23.5614L102.791 25.1014ZM105.455 21.9903L100.208 16.5439L98.9791 17.728L104.226 23.1744L105.455 21.9903ZM99.2591 16.3509C98.0627 16.8607 97.0874 17.5616 96.3755 18.4738L97.7209 19.5238C98.2224 18.8813 98.9441 18.3403 99.9281 17.921L99.2591 16.3509ZM96.3755 18.4738C95.6581 19.393 95.2847 20.4338 95.2847 21.5727H96.9914C96.9914 20.8345 97.2248 20.1594 97.7209 19.5238L96.3755 18.4738ZM95.2847 21.5727C95.2847 22.4201 95.4841 23.1975 95.9237 23.8631L97.3479 22.9226C97.1238 22.5834 96.9914 22.1473 96.9914 21.5727H95.2847ZM95.9299 23.8723C96.3606 24.5064 96.9368 24.9898 97.6401 25.318L98.3618 23.7714C97.9275 23.5688 97.5936 23.2842 97.3417 22.9134L95.9299 23.8723ZM97.6508 25.3229C98.3397 25.6329 99.0862 25.782 99.878 25.782V24.0753C99.3047 24.0753 98.7998 23.9685 98.3511 23.7665L97.6508 25.3229ZM101.37 14.2651C102.137 13.862 102.802 13.4554 103.358 13.0436L102.342 11.6722C101.874 12.0188 101.288 12.3802 100.576 12.7544L101.37 14.2651ZM103.352 13.048C103.943 12.6181 104.423 12.128 104.752 11.5669L103.28 10.703C103.098 11.0141 102.8 11.3394 102.348 11.6678L103.352 13.048ZM104.745 11.5787C105.098 10.9986 105.268 10.3499 105.268 9.65606H103.561C103.561 10.0619 103.465 10.3992 103.287 10.6913L104.745 11.5787ZM105.268 9.65606C105.268 8.94912 105.101 8.28967 104.745 7.70503L103.287 8.5924C103.462 8.87993 103.561 9.22539 103.561 9.65606H105.268ZM104.752 7.71676C104.416 7.14488 103.95 6.69694 103.365 6.38569L102.563 7.89246C102.869 8.05522 103.104 8.28037 103.28 8.58067L104.752 7.71676ZM103.384 6.39619C102.807 6.07038 102.167 5.91601 101.485 5.91601V7.62268C101.902 7.62268 102.248 7.7148 102.544 7.88195L103.384 6.39619ZM101.485 5.91601C100.796 5.91601 100.152 6.06904 99.5791 6.4002L100.433 7.87794C100.713 7.71613 101.055 7.62268 101.485 7.62268V5.91601ZM99.5916 6.39313C99.0286 6.70591 98.5805 7.14858 98.2575 7.70759L99.7352 8.5614C99.9052 8.26719 100.13 8.04625 100.42 7.88502L99.5916 6.39313ZM98.2575 7.70759C97.9289 8.27631 97.7733 8.90962 97.7733 9.58496H99.48C99.48 9.17957 99.5708 8.8459 99.7352 8.5614L98.2575 7.70759ZM97.7733 9.58496C97.7733 10.1083 97.8689 10.6164 98.0592 11.1039L99.6491 10.4835C99.536 10.1936 99.48 9.89593 99.48 9.58496H97.7733ZM98.0659 11.1205C98.2642 11.5989 98.561 12.0779 98.9358 12.5568L100.28 11.5049C99.9721 11.1117 99.7664 10.7658 99.6424 10.4669L98.0659 11.1205ZM98.9358 12.5568C99.3092 13.0339 99.7937 13.5566 100.38 14.1233L101.566 12.8962C101.015 12.3632 100.589 11.9 100.28 11.5049L98.9358 12.5568Z" fill="white" mask="url(#path-1-outside-1_0_564)"/>
<path d="M134.593 28.4553C132.962 28.4553 131.445 28.1424 130.042 27.5168C128.648 26.8911 127.426 26.0236 126.373 24.9144C125.33 23.8053 124.515 22.516 123.927 21.0465C123.34 19.5676 123.046 17.9797 123.046 16.2827C123.046 14.7185 123.306 13.2064 123.828 11.7464C124.349 10.2865 125.112 8.98771 126.117 7.85009C127.122 6.70298 128.35 5.79289 129.8 5.11979C131.26 4.4467 132.915 4.11015 134.763 4.11015C135.977 4.11015 137.124 4.26183 138.205 4.5652C139.285 4.86857 140.276 5.29044 141.177 5.83081C142.087 6.37118 142.878 7.00635 143.551 7.73633L142.428 9.38588C141.537 8.3715 140.418 7.56094 139.072 6.95421C137.726 6.338 136.28 6.02989 134.735 6.02989C133.256 6.02989 131.933 6.30482 130.767 6.85467C129.611 7.40452 128.63 8.15819 127.824 9.11569C127.018 10.0637 126.406 11.1492 125.989 12.3721C125.572 13.5856 125.364 14.8654 125.364 16.2116C125.364 17.6621 125.596 19.013 126.06 20.2644C126.534 21.5063 127.193 22.5965 128.037 23.5351C128.881 24.4641 129.867 25.1894 130.995 25.7108C132.123 26.2227 133.336 26.4787 134.635 26.4787C135.688 26.4787 136.721 26.3033 137.735 25.9525C138.75 25.6018 139.66 25.0946 140.466 24.431C141.281 23.7673 141.926 22.9757 142.4 22.0562C142.883 21.1271 143.125 20.0843 143.125 18.9277V18.1171H134.479V16.368H145.343V18.4584C145.343 20.1175 145.03 21.5727 144.405 22.8241C143.779 24.0754 142.945 25.1183 141.902 25.9525C140.859 26.7773 139.702 27.403 138.432 27.8296C137.162 28.2467 135.882 28.4553 134.593 28.4553ZM150.456 28.0002V3.54134H152.533V28.0002H150.456ZM164.722 28.4553C163.357 28.4553 162.124 28.1235 161.025 27.4599C159.934 26.7868 159.067 25.8672 158.422 24.7011C157.787 23.5351 157.469 22.2031 157.469 20.7052C157.469 19.2263 157.782 17.9086 158.408 16.752C159.043 15.5859 159.906 14.6663 160.996 13.9933C162.096 13.3202 163.338 12.9836 164.722 12.9836C166.04 12.9836 167.234 13.2917 168.305 13.9079C169.377 14.5241 170.192 15.3774 170.751 16.4676V13.4387H172.827V28.0002H170.751V24.9287C170.126 26.0284 169.287 26.8911 168.234 27.5168C167.182 28.1424 166.011 28.4553 164.722 28.4553ZM165.234 26.6493C166.324 26.6493 167.286 26.3981 168.12 25.8956C168.964 25.3837 169.628 24.6822 170.111 23.791C170.595 22.8904 170.837 21.8666 170.837 20.7195C170.837 19.5629 170.595 18.539 170.111 17.6479C169.637 16.7567 168.978 16.0599 168.135 15.5575C167.291 15.0456 166.324 14.7896 165.234 14.7896C164.144 14.7896 163.177 15.0456 162.333 15.5575C161.489 16.0599 160.825 16.7567 160.342 17.6479C159.858 18.539 159.617 19.5629 159.617 20.7195C159.617 21.8666 159.858 22.8904 160.342 23.791C160.825 24.6822 161.489 25.3837 162.333 25.8956C163.177 26.3981 164.144 26.6493 165.234 26.6493ZM178.807 28.0002V13.4387H180.883V15.4295C181.461 14.6237 182.154 14.017 182.959 13.6093C183.765 13.1922 184.666 12.9836 185.661 12.9836C186.856 12.9836 187.894 13.2585 188.775 13.8084C189.667 14.3582 190.283 15.1072 190.624 16.0552C191.183 15.1261 191.894 14.3819 192.757 13.8226C193.629 13.2633 194.663 12.9836 195.857 12.9836C196.89 12.9836 197.81 13.1969 198.616 13.6235C199.422 14.0407 200.052 14.6569 200.507 15.4722C200.972 16.278 201.204 17.2639 201.204 18.43V28.0002H199.128V19.013C199.128 17.6858 198.782 16.6335 198.09 15.8561C197.398 15.0787 196.473 14.69 195.317 14.69C194.52 14.69 193.8 14.8654 193.155 15.2162C192.511 15.567 191.999 16.022 191.62 16.5813C191.24 17.1312 191.051 17.7 191.051 18.2878V28.0002H188.975V18.7997C188.975 17.5388 188.629 16.5387 187.936 15.7992C187.254 15.0598 186.349 14.69 185.22 14.69C184.424 14.69 183.694 14.8607 183.03 15.202C182.376 15.5338 181.855 15.9651 181.466 16.496C181.078 17.0269 180.883 17.572 180.883 18.1314V28.0002H178.807Z" fill="#CEA561"/>
</svg>
